<svg version="1.0" xmlns="http://www.w3.org/2000/svg"
width="8861.000000pt" height="8862.000000pt" viewBox="0 0 8861.000000 8862.000000"
preserveAspectRatio="xMidYMid meet">
<metadata>
Created by potrace 1.14, written by Peter Selinger 2001-2017
</metadata>
<g transform="translate(0.000000,8862.000000) scale(0.100000,-0.100000)"
fill="#192f28" stroke="none">

<path d="M57870 71353 c-1129 -48 -2079 -189 -3250 -483 -1573 -395 -3089
-1084 -4322 -1967 -64 -45 -119 -83 -122 -83 -4 0 -94 59 -202 131 -1295 865
-2753 1501 -4212 1839 -716 165 -1274 244 -2197 312 -118 8 -1352 12 -4667 15
l-4508 4 0 -936 c0 -514 -1 -935 -3 -935 -2 0 -61 25 -133 56 -1356 588 -2949
958 -4454 1035 -294 15 -1082 6 -1370 -15 -883 -66 -1749 -218 -2620 -461 -91
-25 -268 -75 -395 -110 -1906 -532 -3676 -1496 -5085 -2769 -409 -370 -854
-839 -1185 -1248 l-105 -130 1 -2341 c0 -1288 2 -2337 4 -2332 2 6 16 96 30
200 190 1388 589 2711 1160 3843 620 1230 1404 2228 2415 3071 938 783 1959
1294 3220 1612 772 195 1431 280 2170 280 551 0 985 -41 1490 -141 1149 -227
2455 -782 3540 -1503 399 -266 740 -524 1137 -864 l183 -156 0 -10797 0
-10798 -26 -17 c-54 -35 -397 -207 -578 -290 -496 -226 -1111 -438 -1636 -564
-1101 -263 -2037 -339 -3050 -245 -1451 134 -2792 615 -4010 1438 -1336 903
-2411 1953 -3379 3300 -437 607 -907 1384 -1260 2081 l-40 80 -1 -1922 0
-1923 122 -141 c725 -842 1606 -1541 2668 -2117 651 -352 1702 -754 2488 -951
626 -157 1269 -254 2022 -308 307 -21 1292 -25 1610 -5 649 40 1080 88 1645
183 1156 195 2318 519 3251 909 92 38 169 70 171 70 1 0 3 -20 3 -45 l0 -45
4553 3 c4957 3 4610 0 5197 57 1339 132 2623 468 3830 1005 816 363 1447 716
2261 1267 26 18 26 18 120 -49 1061 -750 2313 -1370 3544 -1756 2296 -720
4509 -798 6785 -241 263 64 494 126 935 251 1554 439 3044 1186 4312 2160 393
302 722 591 1099 968 343 342 541 560 812 893 l92 113 0 2337 c0 1288 -4 2332
-9 2327 -4 -6 -18 -86 -30 -180 -50 -380 -143 -885 -236 -1276 -443 -1865
-1210 -3401 -2349 -4699 -55 -63 -218 -232 -361 -375 -1137 -1139 -2320 -1811
-3872 -2199 -809 -202 -1506 -285 -2288 -273 -878 14 -1562 138 -2470 447
-1370 466 -2640 1225 -3800 2271 -152 137 -614 577 -644 613 -12 15 10 40 210
244 1188 1205 2165 2715 2819 4352 725 1814 1004 3865 809 5955 -116 1259
-416 2476 -889 3610 -503 1206 -1173 2339 -1962 3316 -306 380 -563 664 -938
1039 -368 368 -653 626 -1005 910 -77 62 -141 116 -143 120 -3 9 312 313 453
435 1173 1023 2632 1683 4362 1975 1089 183 2133 167 3213 -50 1066 -214 2166
-680 3085 -1308 390 -266 832 -601 1145 -866 513 -434 1070 -994 1521 -1526
709 -837 1388 -1865 1919 -2903 41 -81 78 -147 83 -147 4 0 7 860 7 1911 l0
1912 -72 86 c-361 430 -867 914 -1338 1281 -938 730 -1926 1238 -3255 1673
-857 281 -1795 443 -2865 497 -171 9 -983 11 -1160 3z m-14600 -513 c681 -38
1330 -152 1969 -345 1242 -377 2521 -1125 3606 -2110 138 -125 355 -336 355
-345 0 -4 -39 -42 -87 -85 -399 -354 -895 -863 -1244 -1275 -1284 -1516 -2197
-3283 -2689 -5205 -551 -2152 -572 -4263 -63 -6425 111 -474 315 -1096 547
-1672 408 -1013 935 -1965 1575 -2844 516 -709 1222 -1497 1849 -2064 100 -90
182 -167 182 -170 0 -7 -366 -352 -493 -464 -977 -862 -2127 -1542 -3251
-1922 -755 -256 -1481 -393 -2296 -434 -119 -6 -1323 -10 -3072 -10 l-2878 0
1 768 0 767 167 137 c1117 914 2107 2060 2867 3318 255 422 556 999 749 1435
674 1521 1059 3167 1137 4850 13 283 7 1099 -10 1345 -71 1011 -239 2003 -471
2775 -330 1098 -791 2142 -1365 3095 -228 378 -560 865 -833 1219 -613 797
-1392 1608 -2119 2204 l-123 101 0 1683 0 1683 2903 0 c1854 0 2969 -4 3087
-10z m6774 -3733 c788 -986 1405 -2055 1911 -3312 641 -1592 981 -3217 1056
-5045 13 -321 7 -1282 -10 -1550 -71 -1109 -206 -2007 -442 -2930 -365 -1427
-992 -2883 -1736 -4033 l-70 -109 -125 169 c-1028 1389 -1895 3062 -2418 4668
-135 416 -193 630 -284 1050 -174 807 -281 1634 -338 2620 -18 300 -18 1525 0
1815 62 1020 187 1864 411 2765 354 1426 882 2641 1627 3747 172 255 242 350
254 343 6 -4 79 -93 164 -198z m-12626 -3634 c624 -1099 1129 -2272 1455
-3383 227 -771 418 -1965 487 -3035 47 -750 45 -1654 -6 -2365 -86 -1203 -313
-2357 -683 -3470 -321 -964 -694 -1750 -1215 -2563 -58 -89 -121 -184 -140
-212 l-36 -50 0 7653 c0 4208 2 7652 4 7652 3 0 63 -102 134 -227z"/>

</g>
</svg>