<?xml version="1.0" encoding="UTF-8" standalone="no"?>
<svg
   xmlns:dc="http://purl.org/dc/elements/1.1/"
   xmlns:cc="http://creativecommons.org/ns#"
   xmlns:rdf="http://www.w3.org/1999/02/22-rdf-syntax-ns#"
   xmlns:svg="http://www.w3.org/2000/svg"
   xmlns="http://www.w3.org/2000/svg"
   viewBox="0 0 252 144"
   id="svg2"
   height="144"
   width="252"
   version="1.1">
  <metadata
     id="metadata102">
    <rdf:RDF>
      <cc:Work
         rdf:about="">
        <dc:format>image/svg+xml</dc:format>
        <dc:type
           rdf:resource="http://purl.org/dc/dcmitype/StillImage" />
      </cc:Work>
    </rdf:RDF>
  </metadata>
  <defs
     id="defs100" />
  <path
     id="path4"
     style="fill:#151616;fill-rule:evenodd"
     d="m 154.9023,41.243 4.8053,15.5803 -2.8343,0 -1.3218,-4.5745 -4.7852,0 -1.3419,4.5745 -2.5699,0 4.7752,-15.5803 3.2726,0 z m 0.1673,8.9946 -0.9099,-3.159 c -0.1174,-0.445 -0.4252,-1.7231 -0.9239,-3.8347 l -0.174,0 c -0.3345,1.459 -0.6557,2.7307 -0.9635,3.8149 l -0.8399,3.1788 3.8112,0 z m 20.0914,4.5175 1.3419,0 0,4.7988 -2.2054,0 0,-2.7306 -9.7075,0 0,2.7306 -2.2053,0 0,-4.7988 1.4221,0 c 0.5355,-1.3084 0.9102,-2.7306 1.1279,-4.2664 0.1772,-1.2883 0.2642,-2.8309 0.2642,-4.6281 l 0,-4.6176 9.9621,0 0,13.5121 z m -2.6504,0 0,-11.4241 -4.6848,0 0,2.5296 c 0,3.6743 -0.455,6.6393 -1.3618,8.8945 l 6.0466,0 z m 17.1297,-3.3497 0,5.4179 -2.6302,0 0,-5.421 -1.3986,-1.7067 -3.7746,7.1277 -2.8143,0 4.9224,-9.1188 -4.5009,-6.4615 2.8344,0 4.7316,7.0673 0,-7.0673 2.6302,0 0,7.0673 4.6948,-7.0673 2.8343,0 -4.5008,6.4615 4.9425,9.1188 -2.8142,0 -3.7945,-7.1011 -1.3621,1.6832 z m 11.4109,-10.1624 2.4897,0 0,6.5386 c 0,1.6898 -0.0669,3.5904 -0.2041,5.7087 l 0.2812,0 c 0.5822,-1.8037 1.2716,-3.5872 2.0713,-5.3441 l 3.2326,-6.9032 4.079,0 0,15.5803 -2.4896,0 0,-7.5461 c 0,-2.0245 0.0467,-3.9016 0.1372,-5.6251 l -0.2744,0 c -0.6792,1.6798 -1.4256,3.3931 -2.2354,5.1432 l -3.7746,8.028 -3.3129,0 0,-15.5803 z m 28.9792,0 0,15.5803 -2.7341,0 0,-13.5125 -6.2376,0 0,13.5125 -2.7337,0 0,-15.5803 11.7054,0 z" />
  <g
     id="g6">
    <path
       id="path8"
       style="fill:#000000;fill-rule:evenodd"
       d="m 195.7787,27.244 c 2.6162,-9.5435 -12.6088,-12.9453 -14.5748,-3.4824 -2.0127,9.6879 11.9758,12.9631 14.5748,3.4824 z" />
    <path
       id="path10"
       style="fill:#000000;fill-rule:evenodd"
       d="m 196.6904,29.0273 c -0.4798,0.526 -2.1684,2.7027 -2.2111,3.3351 l 3.8038,0.2842 c -0.0957,-0.8812 -0.937,-3.0702 -1.5927,-3.6193 z" />
    <path
       id="path12"
       style="fill:#000000;fill-rule:evenodd"
       d="m 194.4544,18.8746 2.236,3.131 c 0.6468,-0.5807 1.4367,-2.7216 1.5901,-3.6197 -1.1507,3e-4 -2.919,-0.1024 -3.8261,0.4887 z" />
    <path
       id="path14"
       style="fill:#000000;fill-rule:evenodd"
       d="m 178.7334,18.6499 c 0.0287,0.5757 1.1007,2.9975 1.6763,3.3371 0.8816,-1.7116 1.3996,-1.8815 2.2428,-3.1483 -0.6266,-0.2664 -2.6032,-0.5735 -3.3612,-0.4056 -0.4922,0.1089 -0.2521,0.0247 -0.5579,0.2168 z" />
    <path
       id="path16"
       style="fill:#000000;fill-rule:evenodd"
       d="m 192.2002,36.8829 c 0.552,-0.8395 0.8614,-2.5565 0.873,-3.7808 -0.8097,0.1861 -1.0949,0.4574 -1.7977,0.6987 -0.8467,0.2908 -1.0876,0.0724 -1.8184,0.4389 0.19,0.986 1.7869,2.1273 2.7431,2.6432 z" />
    <path
       id="path18"
       style="fill:#000000;fill-rule:evenodd"
       d="m 187.5688,34.2636 -3.808,-1.1471 0.9417,3.8229 c 0.7796,-0.3938 2.7505,-1.9209 2.8663,-2.6758 z" />
    <path
       id="path20"
       style="fill:#000000;fill-rule:evenodd"
       d="m 179.7722,27.4384 c -0.0904,-1.033 -0.2466,-2.8565 0.1058,-3.7877 -1.0709,-0.0594 -2.6018,1.1136 -3.3942,1.7528 0.4246,0.8113 2.3416,1.8219 3.2884,2.0349 z" />
    <path
       id="path22"
       style="fill:#000000;fill-rule:evenodd"
       d="m 182.4589,32.2538 c 0.0745,-0.3225 0.1302,-0.0433 -0.1122,-0.4472 l -0.9355,-1.0838 c -1.2682,-1.6664 -0.3959,-1.2743 -1.2741,-1.6588 -0.4084,0.6198 -1.4927,2.7851 -1.3929,3.6298 l 3.7147,-0.44 z" />
    <path
       id="path24"
       style="fill:#000000;fill-rule:evenodd"
       d="m 189.4464,16.7992 c 1.7572,0.0912 2.1125,0.6666 3.6171,1.1267 0.005,-0.9056 -0.3182,-2.9978 -0.8808,-3.7872 -0.8824,0.569 -2.4522,1.578 -2.7363,2.6605 z" />
    <path
       id="path26"
       style="fill:#000000;fill-rule:evenodd"
       d="m 200.4709,25.4318 c -0.9375,-0.7993 -2.2358,-1.5442 -3.2479,-1.9888 -0.1284,0.9317 0.143,0.9791 0.1577,1.9574 0.0134,0.8975 -0.2079,1.2085 -0.2375,2.1143 0.8051,-0.1934 2.8619,-1.3935 3.3277,-2.0829 z" />
    <path
       id="path28"
       style="fill:#000000;fill-rule:evenodd"
       d="m 183.7996,17.9162 c 1.4679,-0.3602 2.0666,-1.083 3.8356,-1.117 -0.234,-0.8403 -1.9878,-2.1624 -2.7773,-2.6578 -0.0269,0.0383 -0.0689,0.0533 -0.0781,0.1167 l -0.5622,1.6211 c -0.1254,0.5631 -0.317,1.3734 -0.418,2.037 z" />
    <path
       id="path30"
       style="fill:#000000;fill-rule:evenodd"
       d="m 182.6505,33.7589 -2.9146,0.0481 c 0.125,1.2067 2.2192,2.5301 3.4627,2.6748 l -0.5481,-2.7229 z" />
    <path
       id="path32"
       style="fill:#000000;fill-rule:evenodd"
       d="m 176.1702,27.299 c 0.2889,0.902 0.1691,1.8298 0.8298,3.072 0.5196,0.9771 0.007,0.4008 0.7626,0.7892 l 0.9825,-2.5339 c -0.6566,-0.5534 -1.7382,-1.382 -2.5749,-1.3273 z" />
    <path
       id="path34"
       style="fill:#000000;fill-rule:evenodd"
       d="m 176.1914,23.7148 c 0.6637,0.0257 2.0273,-0.8768 2.5236,-1.352 l -1.0083,-2.5494 c -1.0146,0.5498 -1.3803,2.8908 -1.5153,3.9014 z" />
    <path
       id="path36"
       style="fill:#000000;fill-rule:evenodd"
       d="m 193.8795,14.6925 0.6847,2.4379 c 0.0171,0.0328 0.0572,0.098 0.0887,0.1451 1.0417,-0.001 1.9455,0.0836 2.7075,-0.4786 -0.7482,-0.8483 -2.4365,-2.417 -3.4809,-2.1044 z" />
    <path
       id="path38"
       style="fill:#000000;fill-rule:evenodd"
       d="m 193.8269,36.4182 c 1.0186,0.0743 3.3953,-1.507 3.449,-2.5888 l -2.6229,-0.0862 -0.8261,2.675 z" />
    <path
       id="path40"
       style="fill:#000000;fill-rule:evenodd"
       d="m 190.2748,13.1777 -3.5426,0 c -0.2352,0.4124 -0.0946,0.0708 -0.1604,0.6237 l 1.7253,1.4262 c 0.9312,-0.226 2.0988,-1.0739 1.9777,-2.0499 z" />
    <path
       id="path42"
       style="fill:#000000;fill-rule:evenodd"
       d="m 186.4836,37.4028 c 0.929,0.7181 3.189,0.6944 4.1488,-0.0714 l -2.1949,-1.7061 -1.9539,1.7775 z" />
    <path
       id="path44"
       style="fill:#000000;fill-rule:evenodd"
       d="m 179.6195,16.9353 2.7893,0.4007 0.7456,-2.7766 c -1.2634,0.1124 -2.9055,1.3603 -3.5349,2.3759 z" />
    <path
       id="path46"
       style="fill:#000000;fill-rule:evenodd"
       d="m 198.2752,22.5188 2.4393,1.2512 c -0.002,-1.1076 -0.5822,-3.2969 -1.409,-3.9247 -0.3918,0.6849 -0.9516,1.7638 -1.0303,2.6735 z" />
    <path
       id="path48"
       style="fill:#000000;fill-rule:evenodd"
       d="m 199.4264,31.1147 c 0.6198,-0.5957 1.3405,-2.9236 1.2344,-3.937 l -2.3661,1.3954 c 0.0986,1.3913 1.0205,2.4044 1.0206,2.4042 0.0165,-0.0367 0.073,0.0925 0.1111,0.1374 z" />
  </g>
  <path
     id="path50"
     style="fill:#151616;fill-rule:evenodd"
     d="m 137.4704,63.1902 c -0.212,0 -0.3084,0.1074 -0.2869,0.3195 0,1.3164 -0.0584,2.2552 -0.1752,2.8179 -0.1167,0.5624 -0.303,0.9714 -0.557,1.2254 -0.2554,0.2554 -0.4932,0.3779 -0.7174,0.3668 -0.2228,-0.0108 -0.3969,-0.0692 -0.5244,-0.1752 -0.1279,-0.106 -0.2024,-0.2282 -0.2228,-0.3668 -0.0218,-0.1372 0.005,-0.265 0.0788,-0.3818 0.0745,-0.1168 0.1752,-0.1752 0.303,-0.1752 0.1276,0 0.2118,0.0476 0.254,0.144 0.0434,0.095 0.0638,0.1644 0.0638,0.2064 0,0.064 -0.042,0.1278 -0.1262,0.1916 -0.064,0.0422 -0.0966,0.0842 -0.0966,0.1264 0,0.0638 0.0379,0.1128 0.1114,0.144 0.0748,0.0312 0.144,0.0477 0.208,0.0477 0.0842,0 0.1792,-0.0312 0.2866,-0.0953 0.106,-0.0638 0.2228,-0.2024 0.3492,-0.4144 0.1276,-0.2118 0.2447,-0.557 0.3504,-1.0352 0.106,-0.4768 0.159,-1.3641 0.159,-2.6589 0.0219,-0.1698 -0.053,-0.2651 -0.2228,-0.2869 l -0.4768,0 0,-0.1587 4.0434,0 0,0.1587 c -0.4238,-0.0201 -0.6577,0.0748 -0.6996,0.2869 l 0,3.9169 c -0.0218,0.1916 0.1806,0.2761 0.6046,0.2557 l 0,0.1587 -1.8153,0 0,-0.1587 c 0.4456,0.0204 0.6795,-0.0749 0.701,-0.2869 l 0,-3.8857 c 0.0204,-0.1902 -0.0745,-0.2869 -0.2866,-0.2869 l -1.3056,0 z m 7.6099,-0.1587 -0.0312,0.1587 c -0.3614,0 -0.5408,0.0437 -0.5408,0.1278 0,0.0219 0.01,0.0423 0.0314,0.0638 l 1.3057,2.8032 1.3056,-2.7391 c 0.0422,-0.1701 -0.0638,-0.2557 -0.3192,-0.2557 l 0,-0.1587 1.3382,0 0,0.1587 c -0.4456,-0.0201 -0.712,0.0748 -0.7962,0.2869 -1.2107,2.5908 -1.921,3.9809 -2.1331,4.1726 -0.2134,0.1902 -0.4513,0.2919 -0.7174,0.3016 -0.2651,0.0107 -0.4768,-0.0788 -0.6373,-0.2704 -0.159,-0.1917 -0.2378,-0.3615 -0.2378,-0.5097 0,-0.148 0.0369,-0.2594 0.1114,-0.3342 0.0734,-0.0746 0.1537,-0.1114 0.2393,-0.1114 0.0842,0 0.1698,0.0164 0.254,0.0476 0.0856,0.0326 0.1224,0.1278 0.1114,0.2866 -0.0108,0.159 -0.1114,0.2815 -0.3031,0.3671 0.1279,0.2117 0.2815,0.3177 0.4621,0.3177 0.1808,0 0.3396,-0.0584 0.4782,-0.1752 0.1372,-0.1167 0.3126,-0.3872 0.5258,-0.8126 l -1.561,-3.3109 c -0.106,-0.1701 -0.3289,-0.2557 -0.6684,-0.2557 l 0,-0.1587 1.7824,0 z m 11.4959,0.1587 c -0.5516,-0.0201 -0.8164,0.0967 -0.7963,0.3507 l 0,3.886 c 0,0.2321 0.2557,0.3396 0.7651,0.3177 l 0,0.1591 -2.0707,0 0,-0.1591 c 0.4893,0.0219 0.754,-0.0949 0.7963,-0.3506 l 0,-1.815 c -0.5094,0.212 -0.8805,0.3449 -1.1141,0.3979 -0.2338,0.0531 -0.4674,0.0803 -0.7013,0.0803 -0.106,0 -0.2905,-0.0108 -0.557,-0.0326 -0.265,-0.0204 -0.4821,-0.106 -0.6522,-0.254 -0.1698,-0.1497 -0.2648,-0.3725 -0.2866,-0.6687 l 0,-1.4973 c -0.0218,-0.2758 -0.1386,-0.4144 -0.3506,-0.4144 l -0.3816,0 0,-0.1587 2.0378,0 0,0.1587 -0.4456,0 c -0.2131,0.0218 -0.3084,0.1386 -0.2865,0.3507 l 0,1.4334 c 0.0637,0.3819 0.2593,0.5936 0.5881,0.6373 0.3303,0.0419 0.5681,0.0637 0.7175,0.0637 0.466,0 0.9442,-0.1167 1.4321,-0.3506 l 0,-1.7513 c -0.0627,-0.2554 -0.3181,-0.3832 -0.7637,-0.3832 l 0,-0.1587 2.0693,0 0,0.1587 z m 5.7963,4.2038 c -0.0219,0.1916 0.0745,0.2976 0.2866,0.3194 l 1.4334,0 c 0.2121,-0.0218 0.3396,-0.1386 0.3819,-0.3506 l 0,-3.8857 c -0.0423,-0.1698 -0.2866,-0.2543 -0.7325,-0.2543 l 0,-0.1913 2.0055,0 0,0.1913 c -0.4878,0 -0.7322,0.0845 -0.7322,0.2543 l 0,3.9169 c -0.0204,0.2338 0.2024,0.3506 0.6684,0.3506 l 0,0.1917 -7.2595,0 0,-0.1917 c 0.4238,0 0.6265,-0.106 0.6046,-0.3177 l 0,-3.886 c 0.0219,-0.2121 -0.1916,-0.3181 -0.6372,-0.3181 l 0,-0.1913 1.9117,0 0,0.1913 c -0.447,0 -0.6903,0.1171 -0.7336,0.3506 l 0,3.8206 c 0.0433,0.1916 0.1913,0.2976 0.447,0.3194 l 1.368,0 c 0.2339,-0.0218 0.3832,-0.1278 0.447,-0.3194 l 0,-3.9169 c -0.0638,-0.1698 -0.2866,-0.2543 -0.6698,-0.2543 l 0,-0.1913 1.8479,0 0,0.1913 c -0.4674,0 -0.6795,0.0845 -0.6372,0.2543 l 0,3.9169 z m 6.368,0.064 0,-3.9809 c 0.0218,-0.2121 -0.2758,-0.307 -0.8912,-0.2869 l 0,-0.1587 4.5544,0 0,1.561 -0.0966,0 c -0.1262,-0.807 -0.4876,-1.2745 -1.0815,-1.4023 l -1.5922,0 c -0.2758,-0.0201 -0.4036,0.0967 -0.3832,0.3507 l 0,1.72 1.1792,0 c 0.2758,-0.0856 0.4036,-0.4986 0.3818,-1.2418 l 0.159,0 0,2.6115 -0.159,0 c 0,-0.659 -0.1275,-1.0516 -0.3818,-1.1795 l -1.1792,0 0,1.9758 c -0.0204,0.2117 0.0856,0.3177 0.3192,0.3177 l 1.7189,0 c 0.6372,-0.0856 1.0298,-0.6372 1.1792,-1.6563 l 0.0952,0 0,1.8154 -4.7134,0 0,-0.1591 c 0.5516,0.0219 0.8493,-0.0745 0.8912,-0.2866 z m 8.1522,0 0,-3.9809 c 0.0218,-0.2121 -0.2758,-0.307 -0.8913,-0.2869 l 0,-0.1587 4.5545,0 0,1.561 -0.0967,0 c -0.1261,-0.807 -0.4875,-1.2745 -1.0814,-1.4023 l -1.5922,0 c -0.2758,-0.0201 -0.4037,0.0967 -0.3833,0.3507 l 0,1.72 1.1792,0 c 0.2759,-0.0856 0.4037,-0.4986 0.3819,-1.2418 l 0.159,0 0,2.6115 -0.159,0 c 0,-0.659 -0.1276,-1.0516 -0.3819,-1.1795 l -1.1792,0 0,1.9758 c -0.0204,0.2117 0.0856,0.3177 0.3192,0.3177 l 1.7189,0 c 0.6373,-0.0856 1.0299,-0.6372 1.1793,-1.6563 l 0.0952,0 0,1.8154 -4.7135,0 0,-0.1591 c 0.5517,0.0219 0.8493,-0.0745 0.8913,-0.2866 z m 15.6687,-0.1114 c 0.0205,0.1806 -0.0325,0.3343 -0.159,0.4618 -0.1278,0.1279 -0.3084,0.1701 -0.5422,0.1279 -0.2336,-0.0434 -0.3926,-0.1548 -0.4768,-0.3343 -0.0856,-0.1808 -0.1494,-0.515 -0.1917,-1.004 -0.0419,-0.4878 -0.159,-0.7855 -0.3503,-0.8915 -0.1916,-0.1057 -0.4091,-0.1805 -0.6523,-0.2228 -0.2446,-0.0419 -0.4946,-0.0638 -0.7486,-0.0638 l 0,2.0381 c 0.042,0.1917 0.2648,0.2866 0.6684,0.2866 l 0,0.1591 -1.8153,0 0,-0.1591 c 0.3818,0.0219 0.5953,-0.0745 0.6372,-0.2866 l 0,-4.0121 c -0.0419,-0.1701 -0.2554,-0.2557 -0.6372,-0.2557 l 0,-0.1587 1.8153,0 0,0.1587 c -0.4456,0 -0.6684,0.0748 -0.6684,0.2231 l 0,1.8476 0.254,0 c 0.2134,-0.0638 0.4456,-0.1698 0.701,-0.3192 0.2543,-0.1482 0.4036,-0.4348 0.4459,-0.8586 0.0419,-0.4036 0.2024,-0.6794 0.4782,-0.8288 0.2758,-0.1483 0.4878,-0.2067 0.6358,-0.1755 0.1494,0.0326 0.2446,0.0856 0.2866,0.1604 0.0436,0.0735 0.064,0.1537 0.064,0.2379 0,0.0638 -0.0257,0.1386 -0.0788,0.2228 -0.053,0.0856 -0.1604,0.1221 -0.3194,0.1114 -0.159,-0.0097 -0.2594,-0.0788 -0.3016,-0.2067 -0.0219,-0.0842 -0.0638,-0.1275 -0.1276,-0.1275 -0.0218,0 -0.0802,0.0326 -0.1755,0.0963 -0.0949,0.0638 -0.1859,0.3396 -0.2704,0.8275 -0.0856,0.4878 -0.4252,0.7962 -1.0187,0.9238 0.4033,0.0204 0.7472,0.0694 1.0337,0.1429 0.2866,0.0745 0.4947,0.25 0.6211,0.5258 0.1276,0.2758 0.1914,0.5842 0.1914,0.9238 -0.0216,0.36 0.0326,0.5298 0.159,0.5097 0.1278,-0.0219 0.208,-0.1551 0.2392,-0.3983 0.0312,-0.2446 0.0856,-0.2976 0.159,-0.1602 0.0746,0.1384 0.1222,0.2974 0.144,0.4782 z m 4.7282,0.4618 c 0.1387,0 0.2705,0 0.398,0 l 0,0.159 -1.4332,0 0,-0.159 c 0.3396,0.0422 0.5732,-0.1057 0.701,-0.4456 L 198.6429,63 l 1.8153,4.1712 c 0.1494,0.3614 0.2662,0.5573 0.3504,0.5899 0.0856,0.0312 0.212,0.0473 0.3818,0.0473 l 0,0.159 -1.5596,0 0,-0.159 c 0.0842,0 0.1805,-0.0054 0.2866,-0.0161 0.106,-0.0108 0.159,-0.0477 0.159,-0.1114 0,-0.0638 -0.0315,-0.1591 -0.0953,-0.2869 l -0.4456,-1.114 -1.9428,0 -0.4456,1.114 c -0.0437,0.0856 -0.0641,0.1808 -0.0641,0.2869 0,0.0856 0.0694,0.1275 0.2066,0.1275 z m 1.2581,-4.0121 -0.8913,2.292 1.8153,0 -0.924,-2.292 z m 9.8399,1.9904 c -0.1701,-0.2446 -0.4675,-0.3775 -0.8915,-0.3979 l -0.3504,0 0,2.0692 c 0.042,0.148 0.2758,0.2121 0.701,0.1917 l 0,0.1902 -1.8479,0 0,-0.159 c 0.3832,0.0218 0.6154,-0.0531 0.701,-0.2229 l 0,-2.0692 -0.4456,0 c -0.3192,0.0419 -0.557,0.1425 -0.7174,0.3016 -0.1588,0.159 -0.2702,0.3775 -0.3342,0.6533 -0.0624,0.2759 -0.1372,0.5735 -0.2229,0.8915 -0.0841,0.3178 -0.2009,0.504 -0.3492,0.5571 -0.1494,0.053 -0.2554,0.0802 -0.3192,0.0802 -0.1278,0 -0.2486,-0.0476 -0.3653,-0.144 -0.1171,-0.0953 -0.1863,-0.2543 -0.2081,-0.4771 -0.0204,-0.2228 0,-0.3342 0.0641,-0.3342 0.0215,0 0.0637,0.0312 0.1275,0.0952 0.1279,0.1914 0.2339,0.2974 0.3181,0.3178 0.0856,0.0218 0.1547,-0.0312 0.2077,-0.159 0.053,-0.1276 0.1211,-0.3396 0.2067,-0.6372 0.0638,-0.296 0.1956,-0.5732 0.398,-0.8275 0.2009,-0.2554 0.557,-0.4034 1.0666,-0.4456 -0.4036,-0.0215 -0.7012,-0.2024 -0.8915,-0.542 -0.1913,-0.3398 -0.3815,-0.7744 -0.5731,-1.3056 -0.0856,0.1071 -0.1809,0.1601 -0.2869,0.1601 -0.0419,0 -0.1003,-0.0161 -0.1752,-0.0476 -0.0748,-0.0326 -0.1278,-0.1125 -0.159,-0.2389 -0.0326,-0.1279 0.0111,-0.2285 0.1279,-0.3031 0.1167,-0.0748 0.2063,-0.1114 0.2704,-0.1114 0.0638,0 0.1533,0.0366 0.2701,0.1114 0.1171,0.0746 0.197,0.1752 0.2393,0.3031 0.0218,0.1264 0.0952,0.3654 0.2228,0.716 0.1278,0.3504 0.2758,0.6262 0.4456,0.8274 0.1698,0.2024 0.4674,0.3246 0.8915,0.3668 l 0.1913,0 0,-1.6874 c 0,-0.1917 -0.0949,-0.2869 -0.2866,-0.2869 l -0.4144,0 0,-0.1913 1.8479,0 0,0.1913 -0.4144,0 c -0.1916,0 -0.2866,0.0952 -0.2866,0.2869 l 0,1.6874 0.2228,0 c 0.489,-0.0422 0.8232,-0.2335 1.0026,-0.5734 0.1809,-0.3396 0.3138,-0.6577 0.398,-0.955 0.0641,-0.2976 0.144,-0.4878 0.2392,-0.5735 0.0953,-0.0841 0.1971,-0.1278 0.3031,-0.1278 0.0842,0 0.1752,0.0326 0.2704,0.0967 0.095,0.0637 0.144,0.1372 0.144,0.2228 0,0.0637 -0.0326,0.1425 -0.0967,0.2389 -0.0637,0.0953 -0.1275,0.1429 -0.1902,0.1429 -0.0856,0 -0.1913,-0.053 -0.3192,-0.159 -0.1479,0.4456 -0.3123,0.8328 -0.4932,1.1616 -0.1805,0.3288 -0.4836,0.5258 -0.9076,0.5896 0.5096,0.0638 0.875,0.2393 1.0992,0.5258 0.2228,0.2869 0.3654,0.557 0.4295,0.8113 0.0638,0.2554 0.1222,0.4564 0.1752,0.6058 0.053,0.1482 0.1221,0.212 0.2063,0.1902 0.0856,-0.0201 0.1497,-0.148 0.1917,-0.3816 0.0422,-0.2338 0.1114,-0.2026 0.2066,0.095 0.095,0.2976 0.0802,0.5151 -0.0476,0.6537 -0.1276,0.1372 -0.2704,0.2009 -0.4295,0.1902 -0.1601,-0.0097 -0.3084,-0.0899 -0.4467,-0.2379 -0.1375,-0.1493 -0.2489,-0.447 -0.3345,-0.8926 -0.0842,-0.4456 -0.2117,-0.7908 -0.3815,-1.0341 z m 9.1709,3.1998 -0.095,0 c -0.1916,-0.6372 -0.4348,-0.9879 -0.7324,-1.0502 l -3.4714,0 c -0.2539,0.0623 -0.4674,0.4022 -0.6372,1.019 l -0.1264,0 0.0626,-1.2744 0.6699,0 c 0.2758,-0.4879 0.466,-1.0775 0.5731,-1.7677 0.106,-0.6889 0.1795,-1.4593 0.2228,-2.3086 0,-0.2117 -0.0963,-0.3177 -0.2865,-0.3177 l -0.542,0 0,-0.2554 4.2675,0 0,0.2865 c -0.4456,-0.0422 -0.6902,0.0423 -0.7324,0.2554 l 0,3.8206 c 0.0422,0.1701 0.1902,0.265 0.4458,0.2869 l 0.3504,0 0.0312,1.3056 z m -3.4552,-3.0572 c -0.1167,0.7217 -0.2919,1.3059 -0.5258,1.7516 l 2.2935,0 c 0.2543,0.0419 0.3711,-0.0953 0.3507,-0.4145 l 0,-3.7255 c 0.0204,-0.148 -0.0856,-0.2336 -0.3192,-0.254 l -1.2419,0 c -0.2338,0 -0.3398,0.0842 -0.318,0.254 -0.0423,0.8708 -0.1222,1.667 -0.2393,2.3884 z m 11.3534,-0.3503 c 0,0.6791 -0.2228,1.2418 -0.6699,1.6874 -0.4456,0.447 -0.9972,0.6645 -1.6548,0.6534 -0.6591,-0.0108 -1.1835,-0.2608 -1.5761,-0.7486 -0.394,-0.4876 -0.5896,-1.0449 -0.5896,-1.671 0,-0.6265 0.1698,-1.1523 0.5094,-1.5775 0.3396,-0.4241 0.6576,-0.6795 0.9553,-0.7637 0.2973,-0.0856 0.5624,-0.1275 0.7962,-0.1275 0.2336,0 0.4986,0.0419 0.796,0.1275 0.2976,0.0842 0.61,0.3396 0.9388,0.7637 0.3303,0.4252 0.4947,0.9768 0.4947,1.6563 z m -3.5354,-1.5925 c -0.254,0.3832 -0.3762,0.8872 -0.3654,1.5137 0.009,0.6261 0.1536,1.1304 0.4295,1.5122 0.2758,0.3816 0.5147,0.599 0.716,0.652 0.2024,0.053 0.3776,0.0802 0.5258,0.0802 0.148,0 0.3178,-0.0272 0.5094,-0.0802 0.1916,-0.053 0.4294,-0.2704 0.716,-0.652 0.2866,-0.3818 0.4306,-0.8861 0.4306,-1.5122 0,-0.6265 -0.1222,-1.1305 -0.3668,-1.5137 -0.2432,-0.3819 -0.4878,-0.6154 -0.7322,-0.6996 -0.2446,-0.0856 -0.4294,-0.1279 -0.557,-0.1279 -0.1278,0 -0.3126,0.0423 -0.5573,0.1279 -0.2443,0.0842 -0.4932,0.3177 -0.7486,0.6996 z m 12.3233,-0.7963 c -0.4456,0 -0.6684,0.0856 -0.6684,0.2557 l 0,3.9481 c -0.0422,0.2338 0.1698,0.3506 0.6372,0.3506 l 0,0.1591 -1.9428,0 0,-0.1591 c 0.5094,0 0.754,-0.1168 0.7322,-0.3506 l 0,-3.9169 -1.8151,4.4903 -1.8153,-4.6494 0,4.1089 c 0.0856,0.2117 0.3085,0.3177 0.6699,0.3177 l 0,0.1591 -1.5611,0 0,-0.1591 c 0.4252,0 0.6588,-0.106 0.701,-0.3177 l 0,-4.0136 c 0,-0.1483 -0.2335,-0.2231 -0.701,-0.2231 l 0,-0.1587 1.4332,0 1.465,3.9169 1.5596,-3.9169 1.3056,0 0,0.1587 z m 4.5856,-0.1587 -0.0311,0.1587 c -0.3615,0 -0.5409,0.0437 -0.5409,0.1278 0,0.0219 0.01,0.0423 0.0315,0.0638 l 1.3056,2.8032 1.3056,-2.7391 c 0.0423,-0.1701 -0.0637,-0.2557 -0.3191,-0.2557 l 0,-0.1587 1.3382,0 0,0.1587 c -0.4456,-0.0201 -0.7121,0.0748 -0.7963,0.2869 -1.2106,2.5908 -1.921,3.9809 -2.133,4.1726 -0.2135,0.1902 -0.4513,0.2919 -0.7175,0.3016 -0.265,0.0107 -0.4768,-0.0788 -0.6372,-0.2704 -0.159,-0.1917 -0.2378,-0.3615 -0.2378,-0.5097 0,-0.148 0.0368,-0.2594 0.1114,-0.3342 0.0734,-0.0746 0.1536,-0.1114 0.2392,-0.1114 0.0842,0 0.1698,0.0164 0.254,0.0476 0.0856,0.0326 0.1225,0.1278 0.1114,0.2866 -0.0108,0.159 -0.1114,0.2815 -0.303,0.3671 0.1278,0.2117 0.2815,0.3177 0.462,0.3177 0.1809,0 0.3396,-0.0584 0.4782,-0.1752 0.1372,-0.1167 0.3127,-0.3872 0.5259,-0.8126 l -1.5611,-3.3109 c -0.106,-0.1701 -0.3288,-0.2557 -0.6684,-0.2557 l 0,-0.1587 1.7824,0 z" />
  <g
     id="g52">
    <g
       id="g54">
      <path
         id="path56"
         style="fill:#000000;fill-rule:evenodd"
         d="M 70.938,28.8918 C 73.5543,19.3482 58.3293,15.9465 56.3633,25.4093 54.3506,35.0972 68.3391,38.3725 70.938,28.8918 Z" />
      <path
         id="path58"
         style="fill:#000000;fill-rule:evenodd"
         d="m 71.8498,30.675 c -0.4798,0.5261 -2.1684,2.7028 -2.2112,3.3352 l 3.8039,0.2842 c -0.0957,-0.8812 -0.937,-3.0703 -1.5927,-3.6194 z" />
      <path
         id="path60"
         style="fill:#000000;fill-rule:evenodd"
         d="m 69.6138,20.5224 2.236,3.131 c 0.6467,-0.5808 1.4367,-2.7216 1.5901,-3.6197 -1.1507,3e-4 -2.9191,-0.1024 -3.8261,0.4887 z" />
      <path
         id="path62"
         style="fill:#000000;fill-rule:evenodd"
         d="m 53.8928,20.2977 c 0.0287,0.5757 1.1007,2.9975 1.6763,3.3371 0.8816,-1.7116 1.3995,-1.8815 2.2428,-3.1484 -0.6267,-0.2664 -2.6033,-0.5734 -3.3613,-0.4056 -0.4921,0.109 -0.2521,0.0247 -0.5578,0.2169 z" />
      <path
         id="path64"
         style="fill:#000000;fill-rule:evenodd"
         d="m 67.3596,38.5307 c 0.552,-0.8395 0.8614,-2.5565 0.873,-3.7809 -0.8097,0.1862 -1.0949,0.4574 -1.7977,0.6987 -0.8467,0.2908 -1.0877,0.0725 -1.8184,0.439 0.19,0.986 1.7869,2.1273 2.7431,2.6432 z" />
      <path
         id="path66"
         style="fill:#000000;fill-rule:evenodd"
         d="m 62.7282,35.9114 -3.808,-1.1471 0.9417,3.8228 c 0.7795,-0.3938 2.7505,-1.9209 2.8663,-2.6757 z" />
      <path
         id="path68"
         style="fill:#000000;fill-rule:evenodd"
         d="m 54.9316,29.0862 c -0.0904,-1.0331 -0.2466,-2.8565 0.1058,-3.7877 -1.0709,-0.0594 -2.6018,1.1136 -3.3943,1.7528 0.4247,0.8113 2.3417,1.8219 3.2885,2.0349 z" />
      <path
         id="path70"
         style="fill:#000000;fill-rule:evenodd"
         d="m 57.6182,33.9016 c 0.0746,-0.3225 0.1303,-0.0433 -0.1121,-0.4472 l -0.9356,-1.0838 c -1.2681,-1.6664 -0.3959,-1.2743 -1.2741,-1.6589 -0.4083,0.6199 -1.4927,2.7851 -1.3929,3.6298 l 3.7147,-0.4399 z" />
      <path
         id="path72"
         style="fill:#000000;fill-rule:evenodd"
         d="m 64.6057,18.447 c 1.7573,0.0911 2.1126,0.6666 3.6171,1.1267 0.005,-0.9056 -0.3182,-2.9978 -0.8807,-3.7872 -0.8825,0.569 -2.4523,1.578 -2.7364,2.6605 z" />
      <path
         id="path74"
         style="fill:#000000;fill-rule:evenodd"
         d="m 75.6303,27.0796 c -0.9376,-0.7994 -2.2359,-1.5442 -3.2479,-1.9888 -0.1284,0.9317 0.143,0.9791 0.1576,1.9574 0.0135,0.8975 -0.2078,1.2085 -0.2375,2.1143 0.8051,-0.1934 2.862,-1.3935 3.3278,-2.0829 z" />
      <path
         id="path76"
         style="fill:#000000;fill-rule:evenodd"
         d="m 58.959,19.5639 c 1.4678,-0.3601 2.0666,-1.0829 3.8355,-1.1169 -0.2339,-0.8403 -1.9877,-2.1624 -2.7773,-2.6578 -0.0268,0.0383 -0.0688,0.0532 -0.078,0.1167 L 59.3769,17.527 C 59.2516,18.09 59.06,18.9004 58.959,19.5639 Z" />
      <path
         id="path78"
         style="fill:#000000;fill-rule:evenodd"
         d="m 57.8099,35.4066 -2.9146,0.0482 c 0.125,1.2067 2.2192,2.53 3.4627,2.6748 l -0.5481,-2.723 z" />
      <path
         id="path80"
         style="fill:#000000;fill-rule:evenodd"
         d="m 51.3296,28.9467 c 0.2888,0.902 0.1691,1.8299 0.8298,3.0721 0.5196,0.9771 0.0074,0.4008 0.7626,0.7892 l 0.9825,-2.5339 c -0.6566,-0.5534 -1.7383,-1.382 -2.5749,-1.3274 z" />
      <path
         id="path82"
         style="fill:#000000;fill-rule:evenodd"
         d="m 51.3508,25.3626 c 0.6637,0.0256 2.0272,-0.8768 2.5236,-1.352 L 52.866,21.4612 c -1.0145,0.5498 -1.3802,2.8908 -1.5152,3.9014 z" />
      <path
         id="path84"
         style="fill:#000000;fill-rule:evenodd"
         d="m 69.0388,16.3403 0.6848,2.4379 c 0.0171,0.0328 0.0572,0.098 0.0886,0.1451 1.0418,-0.0011 1.9456,0.0836 2.7076,-0.4786 -0.7482,-0.8483 -2.4365,-2.417 -3.481,-2.1044 z" />
      <path
         id="path86"
         style="fill:#000000;fill-rule:evenodd"
         d="m 68.9863,38.066 c 1.0185,0.0743 3.3953,-1.507 3.449,-2.5888 l -2.6229,-0.0862 -0.8261,2.675 z" />
      <path
         id="path88"
         style="fill:#000000;fill-rule:evenodd"
         d="m 65.4342,14.8255 -3.5427,0 c -0.2351,0.4124 -0.0946,0.0708 -0.1603,0.6237 l 1.7252,1.4262 c 0.9313,-0.2261 2.0988,-1.0739 1.9778,-2.0499 z" />
      <path
         id="path90"
         style="fill:#000000;fill-rule:evenodd"
         d="m 61.643,39.0506 c 0.929,0.718 3.189,0.6944 4.1487,-0.0715 l -2.1948,-1.706 -1.9539,1.7775 z" />
      <path
         id="path92"
         style="fill:#000000;fill-rule:evenodd"
         d="m 54.7788,18.5831 2.7894,0.4007 0.7456,-2.7766 c -1.2634,0.1124 -2.9055,1.3603 -3.535,2.3759 z" />
      <path
         id="path94"
         style="fill:#000000;fill-rule:evenodd"
         d="m 73.4345,24.1666 2.4394,1.2512 c -0.0017,-1.1076 -0.5822,-3.2969 -1.4091,-3.9247 -0.3917,0.6849 -0.9516,1.7637 -1.0303,2.6735 z" />
      <path
         id="path96"
         style="fill:#000000;fill-rule:evenodd"
         d="m 74.5858,32.7625 c 0.6198,-0.5957 1.3404,-2.9236 1.2343,-3.937 l -2.366,1.3953 c 0.0986,1.3914 1.0205,2.4045 1.0206,2.4043 0.0165,-0.0367 0.0729,0.0925 0.1111,0.1374 z" />
    </g>
  </g>
</svg>
