<svg width="627" height="783" viewBox="0 0 627 783" fill="none" xmlns="http://www.w3.org/2000/svg">
<path fill-rule="evenodd" clip-rule="evenodd" d="M821.661 83.1488C822.683 78.2914 822.375 79.9854 820.736 76.3846C829.073 72.864 829.604 67.8841 829.911 56.5044C839.505 55.8775 842.933 66.9861 852.245 70.8259C874.332 79.9343 870.704 73.8378 879.739 74.6746C883.529 75.0259 880.793 74.6483 882.071 75.3175C877.886 81.1954 872.269 76.3102 867.139 83.213C862.693 89.1958 864.963 96.7633 868.879 101.433C881.217 116.143 893.745 98.7474 902.867 103.057C907.637 106.057 906.907 120.278 918.424 114.381C922.555 111.98 921.363 109.828 922.692 104.624C924.1 99.1104 926.389 99.523 931.225 98.5973C951.593 94.6932 940.405 95.6729 950.92 89.0821C956.741 85.4318 989.487 77.268 996.926 78.6967C994.287 90.4641 982.167 82.9185 983.922 97.5695C989.351 101.294 994.475 101.56 998.692 104.878C1000.99 106.685 1008.15 113.885 1009.87 116.184C1025.41 136.863 1033.67 136.901 1051.35 166.919C1062.1 185.169 1103.43 254.808 1110.38 269.148C1116.46 281.712 1120.11 291.489 1134.9 281.792C1145 275.165 1132.82 255.862 1153.51 267.31C1155.58 277.229 1151.59 274.02 1159.83 278.841C1164.76 281.726 1161.63 284.912 1168.71 287.654C1174.43 289.872 1177.33 289.189 1182.88 287.454C1188.77 285.613 1190.8 288.394 1197.08 288.731C1211.8 289.524 1210.19 278.2 1220.53 276.44C1228.14 275.147 1237.22 286.028 1241.39 291.257C1249.44 301.343 1249.93 304.136 1255.77 312.238C1263.71 323.224 1271.38 312.66 1276.45 327.726C1279.26 336.103 1285.54 344.573 1291.72 347.761C1304.5 354.357 1309.19 343.387 1314.77 339.026C1322.12 338.145 1331.16 345.64 1335.78 348.794C1328.83 359.219 1330.06 352.984 1327.62 368.177C1325.8 379.478 1321.8 378.019 1314.23 383.116C1303.49 390.348 1297.83 406.169 1301.62 424.048C1303.47 432.818 1307.12 438.823 1300.37 445.415C1289.64 455.893 1279.31 450.292 1266.52 451.179C1262.55 451.455 1258.59 452.435 1254.42 451.837C1246.53 450.704 1241.63 443.348 1234.97 443.823C1229.92 449.593 1232.88 457.869 1229.47 465.8C1223.2 480.359 1215.48 491.832 1218.95 511.514C1220.64 521.099 1227.73 521.277 1230.06 528.936C1226.93 538.959 1214.01 534.711 1203.81 535.128C1193.71 535.539 1184.55 537.807 1175.34 540.335C1165.85 542.941 1141.58 548.023 1147.81 562.809C1150.47 569.106 1157.52 565.475 1159.72 568.939C1160.89 570.771 1157.34 579.229 1166.58 597.203C1168.92 601.755 1170.16 605.295 1171.94 609.552C1173.76 613.889 1176.58 618.051 1178.08 622.445C1171.99 631.24 1164.39 631.088 1164.1 657.989C1158.42 657.63 1152.09 657.114 1145.9 656.673C1136.69 656.015 1143.83 645.965 1091.95 646.029C1076.11 646.05 1019.97 651.71 1007.95 656.13C998.074 659.757 1007.4 664.901 982.814 661.521C967.449 659.41 963.796 653.792 951.691 649.728C940.836 646.083 926.175 647.472 917.104 651.979C904.302 658.337 906.11 667.465 905.56 683.861C897.931 684.08 898.014 683.061 891.63 681.894C886.253 680.912 880.62 680.97 875.17 680.687C864.883 680.157 856.032 677.197 846.549 675.858C817.224 671.713 819.963 692.72 807.362 704.979C800.401 711.75 792.24 708.381 785.121 716.866C779.438 723.64 777.488 731.1 770.599 736.717C767.206 739.482 764.13 740.039 760.592 743.271C755.845 747.605 757.133 750.98 753.609 753.99C749.578 757.432 747.185 757.792 743.994 761.995C740.417 766.707 741.118 770.343 738.55 774.337C724.885 778.9 726.626 762.764 717.106 758.288C706.819 753.451 692.609 757.712 681.018 755.754C676.688 750.617 678.779 750.047 677.686 744.207C677.288 742.076 674.51 735.937 673.513 733.655C668.341 721.814 664.818 725.34 659.053 718.937C657.929 710.088 661.403 689.594 657.918 683.126C651.222 679.646 650.732 688.239 644.589 677.922C640.266 670.662 637.2 664.277 631.195 658.889C628.027 656.046 628.015 658.144 626.627 652.675C622.204 635.255 610.759 651.202 599.029 650.75C592.727 650.508 586.023 649.13 579.861 648.131C564.243 645.604 557.196 646.676 542.168 649.363C536.422 650.39 531.046 652.079 525.556 653.168C516.399 654.985 515.873 653.467 511.949 647.586C506.359 639.21 500.97 629.165 495.695 620.598C483.304 600.478 470.396 591.484 451.218 578.89C441.579 572.56 435.474 567.891 427.141 560.96C416.38 552.013 411.842 550.089 395.018 553.255C377.388 556.575 336.176 562.22 322.464 565.937C311.174 568.998 316.221 590.931 316.211 600.56C316.197 614.943 316.326 629.396 316.02 643.684C315.395 672.706 316.15 702.005 315.688 731.072C284.825 731.036 293.245 707.122 275.357 691.625C263.56 681.407 243.403 682.664 228.068 687.52C223.79 688.876 216.743 692.143 213.621 692.56C205.133 663.196 222.43 662.97 218.042 645.446C215.956 637.107 208.459 635.413 199.684 634.466C188.726 633.285 191.059 626.126 183.43 621.28C176.066 616.6 169.025 618.447 168.972 606.578C168.897 589.382 164.432 594.619 160.078 585.631C154.846 574.828 156.809 565.016 143.35 558.138C137.31 555.052 136.422 558.753 136.119 550.694C147.272 549.225 184.159 572.63 165.219 536.894C174.208 528.118 168.14 529.288 172.465 523.713C181.018 512.688 219.212 526.274 224.057 522.268C228.652 516.231 221.83 511.374 219.499 507.052C220.824 502.171 228.065 495.169 230.793 488.381C234.467 479.244 229.199 474.749 229.094 464.282C228.992 454.12 223.496 450.395 214.777 448.845C203.895 446.911 196.034 452.872 189.269 451.228C177.225 448.299 179.826 424.796 151.85 436.829C145.331 439.634 138.086 442.749 131.07 445.22C127.194 446.584 116.375 448.426 120.654 454.137C121.782 455.643 121.222 454.754 122.951 455.823L124.872 456.926C125.011 457.008 125.306 457.162 125.502 457.315C115.468 466.268 104.112 468.737 92.5907 458.311C96.8867 454.675 100.438 456.828 99.3606 449.207C95.6441 447.227 84.1697 446.351 79.0085 445.28C89.3605 441.374 94.1019 449.391 77.1354 415.539C71.6081 404.51 66.0002 394.363 60.3881 383.136C51.1909 364.74 31.4891 377.086 29.2739 365.647C27.7444 357.756 30.5236 350.666 27.005 342.944C22.4616 332.976 16.6798 338.9 9.36002 335.073C5.39335 329.283 10.2139 323.968 13.338 320.863C16.0734 318.142 19.9552 309.938 22.4743 308.404C27.4857 305.35 33.307 308.328 32.9692 297.182C32.7811 290.996 27.955 285.845 25.0952 283.235C26.957 272.266 28.5629 277.911 27.1817 263.34C32.2228 259.82 38.3198 259.83 41.9387 254.879C46.509 248.631 42.8674 241.986 46.386 235.681C53.0697 234.075 53.4768 237.227 55.7499 241.657C60.9945 251.876 63.7087 268.743 74.27 273.259C83.8191 277.343 94.2107 273.218 93.8898 262.361C93.6113 252.945 90.2992 252.793 91.2449 232.092C94.1782 232.394 96.3467 233.996 99.9289 233.082C104.142 232.008 103.333 229.448 106.27 227.668C109.868 225.488 111.892 227.442 114.194 223.959C116.081 221.105 115.364 217.027 115.574 213.489C118.781 212.398 123.76 212.011 127.136 210.439C131.254 208.522 132.091 206.325 136.234 204.888C146.811 201.22 150.509 203.191 153.097 191.359C160.22 191.187 160.744 191.396 163.723 185.955L169.553 187.022C170.045 192.25 168.482 194.271 169.929 199.675C175.38 203.589 173.79 197.804 179.102 204.956C180.961 207.458 183.93 211.777 188.91 210.872C196.623 209.471 196.383 195.819 203.539 194.992C207.266 196.742 208.532 205.118 213.766 209.025C219.063 212.977 226.978 212.275 233.967 214.098C248.301 217.836 247.723 235.668 260.897 238.162C260.929 246.972 263.644 248.224 268.433 252.076C276.588 258.634 271.424 259.691 273.279 270.156C274.138 275.009 280.214 281.618 285.091 275.876C287.468 273.077 289.334 263.604 290.654 258.78C298.668 265.018 303.794 274.977 312.509 280.308C327.577 289.527 330.583 269.606 338.094 264.75C339.701 263.711 354.273 260.805 356.931 261.009C363.477 261.512 365.086 266.855 371.036 269.708C380.608 274.299 381.826 268.693 386.308 265.845C391.375 262.622 400.399 264.585 406.333 265.209C406.653 280.532 410.423 284.33 429.363 292.071C434.848 294.313 440.372 298.753 447.018 297.506C455.593 295.895 456.352 290.091 462.056 287.059C466.988 292.615 477.558 302.38 490.399 297.462C500.804 293.476 504.24 284.223 507.195 274.027C514.988 247.129 500.064 250.751 485.78 239.87C481.707 236.766 478.091 233.563 471.803 233.757C471.394 228.504 470.912 224.819 467.964 221.446C463.693 216.561 461.749 219.925 457.676 216.842C463.133 213.441 466.205 216.033 471.758 210.688C474.034 208.497 473.935 208.22 477.005 206.13C479.124 204.688 481.758 203.402 483.331 201.745C493.69 190.821 481.701 178.716 477.556 172.829C486.841 171.918 490.292 170.683 490.501 160.414C497.108 156.904 501.691 155.551 508.381 158.91C524.027 166.766 526.731 149.329 513.948 139.208C509.517 135.7 503.132 133.901 498.719 130.039C502.258 125.857 505.937 127.768 506.807 121.087C503.238 115.418 495.408 115.31 491.037 111.139C494.138 103.181 493.467 103.57 494.707 96.3493L495.43 93.8156C498.123 93.4074 504.734 96.7488 510.291 96.5359C515.87 96.3216 522.271 94.3711 527.561 95.2414C533.399 96.2006 535.694 100.046 542.957 98.3086C551.256 96.3216 552.787 89.2541 560.824 87.5645C569.853 85.6665 566.467 93.0415 583.245 85.9362C588.349 83.7742 590.326 80.4606 596.097 80.0437C623.138 78.0917 613.565 72.9033 618.746 64.8081C622.7 58.6299 624.74 61.7802 632.129 59.646C640.133 57.3368 637.822 56.637 648.257 56.9913C659.606 57.3761 667.611 53.2374 677.691 49.0243C689.281 44.1786 694.131 47.8275 704.284 37.617C709.698 32.1735 708.003 31.2871 709.741 23.3552C721.346 22.3566 718.679 10.2261 725.399 8.1983C732.941 8.7027 733.671 13.0091 741.789 12.8925C750.64 12.7656 750.535 8.82078 757.41 15.4218C770.896 28.3744 774.926 13.2088 785.565 14.2745C789.813 22.6365 785.309 29.822 791.261 38.2176C797.148 46.5213 799.953 46.2253 799.858 60.4492C799.796 69.9731 790.866 76.3452 798.643 84.3515C804.27 90.1449 815.578 86.4741 821.668 83.1561L821.661 83.1488ZM701.383 29.9518C697.997 32.5219 695.495 36.1737 692.315 37.3458C688.434 38.7745 683.769 38.5033 678.838 40.2264C671.342 42.8461 662.784 48.1671 654.696 49.1366C649.224 49.7926 644.018 48.4762 638.554 49.2386C632.378 50.1017 633.049 52.0653 625.065 52.6164C616.032 53.2389 610.491 60.2539 609.394 69.9702C605.312 70.9426 590.305 72.5738 589.188 73.103C583.777 75.6615 584.33 77.9896 572.981 81.3324C572.782 81.2085 572.547 80.672 572.467 80.8426C572.455 80.8673 570.013 77.2855 563.913 78.8701C561.189 79.5772 556.201 80.7347 553.357 81.9534C545.955 85.1285 544.94 93.1159 536.49 90.1624C525.299 86.2496 526.33 87.066 514.171 88.4305C497.449 90.3096 500.597 82.7319 493.077 82.6517C491.471 84.5221 492.35 83.6678 491.279 85.5848C487.654 92.0765 487.183 90.674 486.795 99.1294C486.113 113.887 471.021 113.603 495.013 121.807C490.025 128.624 477.743 129.462 502 140.591C507.442 143.088 512.947 147.185 514.53 152.942C504.948 149.688 506.133 146.658 493.768 150.838C481.461 154.996 484.11 154.171 482.654 164.21C477.646 165.674 473.184 163.811 470.85 167.996C464.277 179.787 491.443 188.178 473.454 199.462C470.152 201.532 468.078 204.617 464.699 206.362C460.427 208.569 442.897 210.607 450.768 221.217C454.089 225.694 457.72 224.192 461.626 226.73C466.103 230.147 462.669 242.055 469.207 244.256C471.312 244.965 470.1 244.832 472.233 244.199C475.859 243.123 471.384 244.026 475.555 242.307C480.614 245.265 483.145 247.987 487.616 250.867C493.251 254.497 495.886 252.86 501.445 258.117C502.913 270.211 497.514 286.17 488.901 289.998C474.355 296.462 465.986 274.242 460.033 276.504C455.873 280.292 450.099 292.55 441.075 289.025C391.836 269.788 428.727 262.085 404.296 257.29C383.369 253.184 381.244 262.763 377.163 263.348C370.114 264.356 368.518 249.471 346.671 254.678C340.825 256.072 338.986 255.589 333.679 256.407C331.169 261.489 327.766 265.542 324.755 269.97C317.394 280.795 311.398 269.473 300.521 257.817C297.531 254.612 292.248 245.247 288.419 246.647C281.97 251.878 283.772 261.744 279.996 267.46C279.601 243.759 277.212 253.178 269.589 243.981C266.246 239.947 270.039 238.818 267.551 234.126C265.904 231.019 260.579 232.681 254.774 223.405C250.45 216.496 249.353 214.152 243.544 210.113C237.59 205.974 233.01 205.994 225.535 204.902C215.533 203.442 216.599 201.329 212.659 193.256C210.267 188.355 203.916 184.722 197.519 188.468C191.685 191.884 191.811 198.576 187.112 202.583C183.311 198.344 182.248 196.295 177.718 193.171C177.569 193.068 177.275 192.877 177.07 192.703C177.132 186.371 177.48 183.059 172.805 180.608C169.149 178.692 163.538 176.377 159.726 176.656L156.739 183.233C147.26 184.675 148.757 184.648 145.208 192.244C142.667 197.677 136.418 195.465 130.471 198.92C122.994 203.261 126.453 202.56 116.248 205.158C109.241 206.94 107.147 210.384 108.107 218.743C100.835 220.432 101.748 221.263 97.4268 225.479C92.9243 224.291 88.3144 220.558 85.114 223.796C79.7563 230.045 87.1807 260.585 85.4773 266.023C62.4647 273.985 69.4382 215.814 43.4668 228.631C34.6033 233.006 39.0662 243.026 35.9689 249.551C33.7665 252.602 31.4947 252.799 27.1803 254.525C23.5261 255.987 20.2917 257.337 19.6329 261.585C18.8045 266.918 21.8255 268.351 19.893 274.807C18.3112 280.086 16.0734 279.677 16.7222 286.114C20.3072 289.437 25.1913 291.929 25.4062 299.542C18.0708 300.557 15.8147 302.719 12.7768 308.339C7.42475 318.24 -5.13965 326.093 2.29184 338.544C6.97097 346.386 11.7095 341.085 18.4921 344.696C25.3624 350.137 18.6688 368.578 25.7554 375.034C33.4639 382.054 48.1799 375.974 53.0979 385.619C59.5229 398.216 75.186 425.491 78.4939 436.953C63.5249 436.581 59.3193 443.409 70.1379 449.618C74.1187 451.903 76.553 452.806 81.2604 453.449C79.5075 462.094 80.8236 460.463 89.9217 466.084C105.985 476.009 119.915 474.182 132.754 460.922C135.801 457.775 136.785 457.066 135.681 451.408C142.844 450.198 150.974 445.395 157.669 442.832C170.133 438.059 171.576 444.564 176.599 451.282C189.956 469.151 208.23 448.07 221.405 460.626C221.945 468.472 220.61 469.135 223.406 476.68C226.896 486.091 218.991 492.917 214.206 500.142C210.277 506.072 211.798 508.257 214.312 514.193C201.369 512.617 180.052 507.003 168.535 516.713C164.064 520.481 164.895 524.175 162.057 529.267C158.038 532.565 149.166 527.009 158.332 540.726C160.206 543.532 161.604 545.688 162.652 548.876C157.157 549.012 124.12 531.295 129.002 556.1C131.522 568.914 141.471 560.591 148.053 573.213C150.301 577.522 150.775 582.584 152.662 587.36C155.376 594.229 158.747 594.701 160.479 598.2C162.778 602.847 160.855 610.133 162.478 614.973C166.197 626.063 177.72 623.904 182.689 631.036C194.949 648.633 194.531 637.156 207.08 643.684C221.411 651.14 193.211 664.274 208.075 702.121C221.998 703.069 253.735 677.19 273.922 701.053C279.906 708.126 283.843 721.598 289.329 728.97C294.219 735.542 310.417 742.735 322.338 738.001C324.73 731.234 323.87 618.22 323.726 593.555C323.686 586.628 322.25 580.776 323.31 573.784C336.618 570.429 354.581 568.287 368.516 565.857C425.894 555.85 404.983 556.996 443.942 583.428C461.673 595.456 475.228 603.07 486.739 620.864C493.806 631.789 499.875 643.625 507.388 654.291C520.173 672.438 539.382 650.869 573.118 654.966C581.094 655.934 589.08 657.743 597.069 658.343C608.933 659.234 610.137 656.1 618.321 652.127C618.468 652.353 618.608 652.465 618.653 652.865C618.7 653.266 618.906 653.432 618.967 653.613L619.471 655.162C622.162 664.422 627.929 664.838 633.382 673.559C641.124 685.943 638.171 686.224 650.724 691.713C650.904 691.791 651.236 691.924 651.466 692.076C651.543 697.892 650.665 716.449 651.557 720.566C653.129 727.815 661.965 727.161 665.926 735.478C676.527 757.734 664.066 764.367 696.452 763.845C704.91 763.71 713.847 761.911 717.948 770.333C721.376 777.374 725.255 782.935 735.043 782.999C747.88 783.085 745.62 773.375 749.312 767.506C750.879 765.017 754.027 763.106 757.281 760.779C762.195 757.265 760.63 758.419 763.536 752.256C765.369 748.374 767.148 747.932 770.708 745.752C782.39 738.599 782.441 731.89 790.93 721.841C799.088 712.182 807.754 724.066 822.725 694.945C832.369 676.184 845.681 684.212 865.006 687.361C873.293 688.711 883.744 687.957 891.56 689.775C897.021 691.046 897.124 692.182 903.593 691.793C907.593 691.552 913.277 691.517 916.17 689.933C917.911 682.059 912.053 685.988 912.794 672.163C913.207 664.463 915.013 661.412 920.798 658.82C947.523 646.85 959.09 667.905 987.848 669.824C994.332 670.257 1001.13 670.63 1006.13 667.262C1015.09 661.218 1009.1 663.551 1021.65 661.345C1041.81 657.801 1118.03 645.972 1135.92 660.664C1143.86 667.182 1142.59 663.545 1153.7 664.258C1159.38 664.624 1166.61 669.182 1171.05 665.956C1174.48 656.17 1168.45 646.99 1177.48 634.042C1180.6 629.573 1185.39 629.492 1186.18 624.169C1186.85 619.676 1171.25 590.908 1168.81 584.018C1166.28 576.859 1168.75 572.456 1166.94 566.019C1164.98 559.023 1158.97 561.699 1154.64 558.776C1158.32 550.675 1182.6 546.176 1192.52 544.201C1208.55 541.007 1229.26 547.94 1235.89 535.128C1240.33 526.551 1235.31 521.356 1230.95 516.931C1224.78 510.667 1225.22 506.738 1226.48 495.501C1228.59 476.687 1238.62 472.993 1239.13 453.897C1248.78 456.64 1248.13 461.004 1262.67 459.38C1272.59 458.273 1279.24 461.065 1288.11 459.562C1305.2 456.665 1314.86 446.119 1310.27 427.162C1307.82 417.046 1306.7 412.98 1309.72 402.372C1312.67 392.005 1315.18 391.758 1323.32 386.482C1330.79 381.643 1333.21 381.044 1334.99 369.838C1335.66 365.663 1335.63 360.944 1337.93 357.809C1342.51 351.57 1359.14 351.921 1325.69 333.662C1309.33 324.739 1308.28 338.321 1301.53 341.202C1292.87 344.905 1285.31 330.212 1283.1 323.891C1276.87 306.063 1268.3 315.171 1262.05 307.772C1259.86 305.175 1253.57 293.984 1246.73 285.747C1218.92 252.22 1211.3 276.59 1202.06 280.375C1196.52 282.648 1191.83 278.908 1186.48 278.901C1179.32 278.891 1179.55 282.898 1171.05 280.19L1170.68 273.997L1162.02 271.536C1159.94 261.173 1160.35 259.49 1145.25 256.143C1140.22 255.026 1136.98 257.133 1134.86 259.849C1131.7 263.918 1132.89 268.618 1132.26 274.354C1129.48 276.023 1127.63 277.309 1123.78 277.956C1120.86 275.159 1112.57 257.812 1109.79 252.914C1096.21 229.006 1064.34 171.749 1051.71 152.59C1039.16 133.534 1026.99 126.347 1015.23 110.653C1013.15 107.878 1008.55 103.484 1005.63 100.663C1001.56 96.7167 999.03 96.3333 992.973 93.5474C997.37 91.1464 999.536 91.6041 1002.11 87.0732C1003.99 83.7859 1005.57 77.9153 1004.73 73.7503C997.615 69.097 988.045 70.9688 978.89 73.1482C969.423 75.4035 961.245 75.9487 952.462 79.653C938.046 85.7335 948.061 87.7438 930.49 90.8169C925.529 91.6858 921.304 93.078 918.82 95.7006C914.697 100.055 916.334 102.866 914.458 107.534C908.344 100.675 910.931 90.5764 893.853 95.737C889.137 97.1628 884.026 100.526 878.94 99.2183C874.204 98.001 871.697 93.4337 872.628 87.7963C878.785 84.8253 890.535 85.5557 889.971 74.4617C889.35 62.2584 874.281 68.492 869.238 68.1261C847.793 66.5691 839.746 41.9204 826.63 49.1118C820.797 52.3102 823.74 61.372 821.069 66.5866C819.753 69.1567 817.549 69.3492 815.171 71.4134C811.937 74.2197 813.026 75.5799 811.241 79.013C791.804 83.4987 818.906 62.5412 800.834 38.3007C791.59 25.902 797.701 27.5522 794.268 15.2045C791.344 4.68643 784.847 4.16161 775.463 9.60946C761.246 17.8636 764.482 8.35866 756.768 5.06546C751.521 2.82626 747.735 4.85553 742.695 5.03484C730.477 5.46927 725.907 -9.93835 713.316 11.1066C708.909 18.4715 710.322 13.0586 704.56 17.0414C701.017 19.4891 701.885 24.2211 701.383 29.9532V29.9518Z" fill="white"/>
</svg>
