<svg width="226" height="54" viewBox="0 0 226 54" fill="none" xmlns="http://www.w3.org/2000/svg">
<path fill-rule="evenodd" clip-rule="evenodd" d="M83.2553 0L92.3525 30.4176H86.9867L84.4843 21.4867H75.4253L72.8848 30.4176H68.0197L77.0598 0H83.2553ZM83.572 17.5602L81.8495 11.3929C81.6272 10.5241 81.0445 8.02887 80.1004 3.90638H79.771C79.1377 6.7548 78.5296 9.23755 77.9469 11.3542L76.3569 17.5602H83.572ZM121.608 26.3798H124.148V35.7485H119.973V30.4176H101.596V35.7485H97.4206V26.3798H100.113C101.127 23.8254 101.836 21.0488 102.248 18.0505C102.584 15.5353 102.748 12.5237 102.748 9.01498V0H121.608V26.3798ZM116.59 26.3798V4.07642H107.721V9.01498C107.721 16.1884 106.86 21.977 105.143 26.3798H116.59ZM149.02 19.8401V30.4176H144.04V19.8341L141.392 16.5021L134.247 30.4176H128.919L138.237 12.6148L129.717 0H135.083L144.04 13.7976V0H149.02V13.7976L157.907 0H163.273L154.753 12.6148L164.109 30.4176H158.782L151.598 16.554L149.02 19.8401ZM170.622 0H175.335V12.7654C175.335 16.0644 175.209 19.7749 174.949 23.9105H175.481C176.584 20.3891 177.889 16.9072 179.403 13.4772L185.522 0H193.245V30.4176H188.531V15.6852C188.531 11.7328 188.62 8.06811 188.791 4.70331H188.272C186.986 7.9828 185.573 11.3277 184.04 14.7444L176.894 30.4176H170.622V0ZM225.484 0V30.4176H220.308V4.03698H208.499V30.4176H203.324V0H225.484Z" fill="white"/>
<path fill-rule="evenodd" clip-rule="evenodd" d="M40.7597 30.153C46.1979 9.69524 14.5501 2.40302 10.4634 22.688C6.27967 43.4554 35.3572 50.4762 40.7597 30.153Z" fill="white"/>
<path fill-rule="evenodd" clip-rule="evenodd" d="M42.6548 33.9758C41.6575 35.1034 38.1474 39.7694 38.0587 41.125L45.9655 41.7343C45.7666 39.8453 44.0178 35.1529 42.6548 33.9758Z" fill="white"/>
<path fill-rule="evenodd" clip-rule="evenodd" d="M38.007 12.2121L42.6549 18.9238C43.9994 17.679 45.6413 13.0897 45.9602 11.1645C43.5682 11.1651 39.8925 10.945 38.007 12.2121Z" fill="white"/>
<path fill-rule="evenodd" clip-rule="evenodd" d="M5.32806 11.7304C5.38772 12.9645 7.61606 18.1559 8.81255 18.8839C10.6451 15.2149 11.7219 14.8507 13.4746 12.1351C12.1721 11.564 8.06341 10.9057 6.48777 11.2656C5.46465 11.4991 5.96372 11.3186 5.32806 11.7304Z" fill="white"/>
<path fill-rule="evenodd" clip-rule="evenodd" d="M33.3212 50.8153C34.4686 49.0158 35.1118 45.3351 35.1359 42.7107C33.4528 43.1096 32.8599 43.6912 31.399 44.2085C29.639 44.8318 29.1383 44.3637 27.6192 45.1493C28.0142 47.2629 31.3336 49.7094 33.3212 50.8153Z" fill="white"/>
<path fill-rule="evenodd" clip-rule="evenodd" d="M23.694 45.2005L15.7784 42.7416L17.7359 50.9365C19.3565 50.0923 23.4533 46.8188 23.694 45.2005Z" fill="white"/>
<path fill-rule="evenodd" clip-rule="evenodd" d="M7.48733 30.5697C7.29942 28.3553 6.97473 24.4464 7.70726 22.4502C5.48121 22.3229 2.29894 24.8374 0.651794 26.2076C1.5344 27.9467 5.51924 30.1131 7.48733 30.5697Z" fill="white"/>
<path fill-rule="evenodd" clip-rule="evenodd" d="M13.0722 40.8922C13.227 40.2009 13.3428 40.7994 12.8389 39.9335L10.8943 37.6103C8.25815 34.0381 10.0714 34.8786 8.2459 34.0544C7.39697 35.383 5.14306 40.0247 5.35052 41.8354L13.0722 40.8922Z" fill="white"/>
<path fill-rule="evenodd" clip-rule="evenodd" d="M27.5969 7.76317C31.2496 7.95867 31.9882 9.19212 35.1157 10.1784C35.1261 8.23713 34.4543 3.75221 33.2848 2.06003C31.4506 3.27976 28.1875 5.44269 27.5969 7.76317Z" fill="white"/>
<path fill-rule="evenodd" clip-rule="evenodd" d="M50.5133 26.2683C48.5645 24.5549 45.8658 22.9581 43.762 22.005C43.4951 24.0023 44.0592 24.1039 44.0898 26.201C44.1176 28.1249 43.6576 28.7916 43.5961 30.7333C45.2696 30.3187 49.545 27.7461 50.5133 26.2683Z" fill="white"/>
<path fill-rule="evenodd" clip-rule="evenodd" d="M15.859 10.1577C18.9103 9.38551 20.1548 7.83609 23.832 7.76321C23.3455 5.96191 19.7 3.12781 18.0588 2.06586C18.0029 2.14796 17.9156 2.18011 17.8965 2.31602L16.7279 5.79107C16.4672 6.99815 16.069 8.73514 15.859 10.1577Z" fill="white"/>
<path fill-rule="evenodd" clip-rule="evenodd" d="M13.4704 44.1186L7.41193 44.2217C7.67176 46.8085 12.0249 49.6453 14.6097 49.9555L13.4704 44.1186Z" fill="white"/>
<path fill-rule="evenodd" clip-rule="evenodd" d="M0 30.2709C0.60053 32.2044 0.351511 34.1933 1.72489 36.8561C2.80497 38.9507 1.73945 37.7153 3.3101 38.5479L5.3524 33.1161C3.98754 31.9298 1.73923 30.1536 0 30.2709Z" fill="white"/>
<path fill-rule="evenodd" clip-rule="evenodd" d="M0.0440674 22.5877C1.42368 22.6428 4.25815 20.7082 5.28979 19.6895L3.19386 14.2245C1.08484 15.4031 0.324689 20.4214 0.0440674 22.5877Z" fill="white"/>
<path fill-rule="evenodd" clip-rule="evenodd" d="M36.8119 3.24718L38.2351 8.47314C38.2707 8.54345 38.354 8.68322 38.4195 8.78418C40.5849 8.78204 42.4636 8.96339 44.0475 7.75824C42.4923 5.9398 38.9829 2.57708 36.8119 3.24718Z" fill="white"/>
<path fill-rule="evenodd" clip-rule="evenodd" d="M36.7025 49.8192C38.8199 49.9784 43.7602 46.5887 43.8718 44.2697L38.4197 44.0849L36.7025 49.8192Z" fill="white"/>
<path fill-rule="evenodd" clip-rule="evenodd" d="M29.3189 0H21.955C21.4661 0.884035 21.7584 0.15177 21.6216 1.33699L25.2079 4.39424C27.1436 3.90978 29.5707 2.09219 29.3189 0Z" fill="white"/>
<path fill-rule="evenodd" clip-rule="evenodd" d="M21.4382 51.9298C23.3693 53.4691 28.0671 53.4183 30.0622 51.7767L25.4997 48.1194L21.4382 51.9298Z" fill="white"/>
<path fill-rule="evenodd" clip-rule="evenodd" d="M7.16998 8.05492L12.968 8.91387L14.5179 2.96185C11.8917 3.2028 8.4783 5.87784 7.16998 8.05492Z" fill="white"/>
<path fill-rule="evenodd" clip-rule="evenodd" d="M45.9492 20.0239L51.0196 22.706C51.0155 20.3317 49.8094 15.6387 48.0908 14.2929C47.2764 15.7611 46.1127 18.0739 45.9492 20.0239Z" fill="white"/>
<path fill-rule="evenodd" clip-rule="evenodd" d="M48.3421 38.4504C49.6305 37.1734 51.1285 32.1833 50.908 30.0109L45.9896 33.0021C46.1946 35.9846 48.1109 38.1563 48.1112 38.1559C48.1455 38.0772 48.2629 38.3541 48.3421 38.4504Z" fill="white"/>
<path fill-rule="evenodd" clip-rule="evenodd" d="M68.7467 45.4678C68.4295 45.4678 68.2853 45.6259 68.3174 45.9381C68.3174 47.8759 68.23 49.2578 68.0553 50.0861C67.8807 50.9139 67.6019 51.516 67.2219 51.8899C66.8398 52.2658 66.484 52.4461 66.1486 52.4298C65.8152 52.4139 65.5548 52.3279 65.364 52.1719C65.1726 52.0159 65.0612 51.836 65.0307 51.632C64.998 51.43 65.0381 51.2419 65.1486 51.07C65.26 50.898 65.4107 50.8121 65.6019 50.8121C65.7928 50.8121 65.9188 50.8821 65.9819 51.024C66.0468 51.1639 66.0774 51.266 66.0774 51.3279C66.0774 51.4221 66.0145 51.516 65.8886 51.6099C65.7928 51.672 65.744 51.7338 65.744 51.796C65.744 51.8899 65.8007 51.962 65.9107 52.0079C66.0226 52.0539 66.1261 52.0781 66.2219 52.0781C66.3479 52.0781 66.49 52.0322 66.6507 51.9379C66.8093 51.844 66.984 51.6399 67.1732 51.3279C67.3641 51.0161 67.5393 50.508 67.6974 49.804C67.856 49.1022 67.9353 47.7961 67.9353 45.8901C67.9681 45.6402 67.856 45.4999 67.602 45.4678H66.8886V45.2342H72.9381V45.4678C72.3041 45.4382 71.9541 45.5779 71.8914 45.8901V51.6558C71.8588 51.9379 72.1616 52.0622 72.796 52.0322V52.2658H70.08V52.0322C70.7467 52.0622 71.0967 51.922 71.1289 51.6099V45.8901C71.1594 45.6101 71.0174 45.4678 70.7 45.4678H68.7467ZM80.1323 45.2342L80.0856 45.4678C79.5449 45.4678 79.2765 45.5321 79.2765 45.6559C79.2765 45.6882 79.2914 45.7182 79.3235 45.7498L81.277 49.8762L83.2304 45.8442C83.2935 45.5938 83.1349 45.4678 82.7528 45.4678V45.2342H84.7549V45.4678C84.0883 45.4382 83.6897 45.5779 83.5637 45.8901C81.7523 49.7038 80.6896 51.75 80.3723 52.0322C80.053 52.3122 79.697 52.4619 79.2989 52.4762C78.9023 52.4919 78.5855 52.3602 78.3454 52.0781C78.1075 51.796 77.9896 51.546 77.9896 51.3279C77.9896 51.11 78.0448 50.946 78.1563 50.8359C78.2661 50.7261 78.3863 50.6719 78.5143 50.6719C78.6403 50.6719 78.7684 50.6961 78.8943 50.742C79.0224 50.79 79.0775 50.9301 79.061 51.1639C79.0449 51.3979 78.8944 51.5783 78.6075 51.7043C78.7989 52.0159 79.0287 52.1719 79.2989 52.1719C79.5694 52.1719 79.807 52.0859 80.0144 51.914C80.2196 51.7422 80.4821 51.3441 80.801 50.7179L78.4655 45.8442C78.3069 45.5938 77.9735 45.4678 77.4655 45.4678V45.2342H80.1323ZM97.3319 45.4678C96.5067 45.4382 96.1105 45.6102 96.1406 45.984V51.7043C96.1406 52.0459 96.5231 52.2041 97.2853 52.1719V52.4061H94.1872V52.1719C94.9192 52.2041 95.3153 52.0322 95.3786 51.6558V48.9841C94.6164 49.2962 94.0612 49.4918 93.7117 49.5698C93.3619 49.648 93.0124 49.688 92.6624 49.688C92.5038 49.688 92.2278 49.6721 91.8291 49.6401C91.4326 49.61 91.1078 49.484 90.8533 49.2662C90.5992 49.0458 90.4571 48.7178 90.4245 48.2818V46.0778C90.3919 45.6718 90.2171 45.4678 89.8999 45.4678H89.329V45.2342H92.3779V45.4678H91.7112C91.3923 45.4999 91.2498 45.6718 91.2825 45.984V48.094C91.3778 48.6562 91.6705 48.9678 92.1624 49.0321C92.6566 49.0938 93.0124 49.1259 93.2359 49.1259C93.9331 49.1259 94.6486 48.9541 95.3786 48.6098V46.0319C95.2847 45.6559 94.9026 45.4678 94.2359 45.4678V45.2342H97.3319V45.4678ZM106.004 51.6558C105.971 51.9379 106.116 52.0939 106.433 52.126H108.578C108.895 52.0939 109.086 51.922 109.149 51.6099V45.8901C109.086 45.6402 108.72 45.5158 108.053 45.5158V45.2342H111.054V45.5158C110.324 45.5158 109.958 45.6402 109.958 45.8901V51.6558C109.927 52 110.261 52.1719 110.958 52.1719V52.4541H100.097V52.1719C100.731 52.1719 101.034 52.0159 101.001 51.7043V45.984C101.034 45.6718 100.715 45.5158 100.048 45.5158V45.2342H102.908V45.5158C102.239 45.5158 101.875 45.6882 101.811 46.0319V51.6558C101.875 51.9379 102.097 52.0939 102.479 52.126H104.526C104.876 52.0939 105.099 51.9379 105.195 51.6558V45.8901C105.099 45.6402 104.766 45.5158 104.193 45.5158V45.2342H106.957V45.5158C106.258 45.5158 105.941 45.6402 106.004 45.8901V51.6558ZM115.532 51.75V45.8901C115.564 45.5779 115.119 45.4382 114.198 45.4678V45.2342H121.012V47.532H120.868C120.679 46.3441 120.138 45.6559 119.25 45.4678H116.868C116.455 45.4382 116.264 45.6102 116.294 45.984V48.5159H118.058C118.471 48.3899 118.662 47.7819 118.63 46.6879H118.868V50.5321H118.63C118.63 49.562 118.439 48.9841 118.058 48.7959H116.294V51.7043C116.264 52.0159 116.422 52.1719 116.772 52.1719H119.344C120.297 52.0459 120.884 51.234 121.108 49.7338H121.25V52.4061H114.198V52.1719C115.024 52.2041 115.469 52.0622 115.532 51.75ZM127.729 51.75V45.8901C127.761 45.5779 127.316 45.4382 126.395 45.4678V45.2342H133.209V47.532H133.065C132.876 46.3441 132.335 45.6559 131.447 45.4678H129.065C128.652 45.4382 128.461 45.6102 128.491 45.984V48.5159H130.255C130.668 48.3899 130.859 47.7819 130.827 46.6879H131.065V50.5321H130.827C130.827 49.562 130.636 48.9841 130.255 48.7959H128.491V51.7043C128.461 52.0159 128.619 52.1719 128.969 52.1719H131.54C132.494 52.0459 133.081 51.234 133.305 49.7338H133.447V52.4061H126.395V52.1719C127.221 52.2041 127.666 52.0622 127.729 51.75ZM151.171 51.5861C151.202 51.8519 151.123 52.0781 150.934 52.2658C150.742 52.4541 150.472 52.5162 150.122 52.4541C149.773 52.3902 149.535 52.2262 149.409 51.962C149.281 51.6959 149.185 51.2039 149.122 50.4841C149.059 49.7661 148.884 49.3278 148.598 49.1718C148.311 49.0162 147.986 48.9061 147.622 48.8439C147.256 48.7822 146.882 48.7499 146.502 48.7499V51.75C146.565 52.0322 146.898 52.1719 147.502 52.1719V52.4061H144.786V52.1719C145.357 52.2041 145.677 52.0622 145.74 51.75V45.8442C145.677 45.5938 145.357 45.4678 144.786 45.4678V45.2342H147.502V45.4678C146.835 45.4678 146.502 45.5779 146.502 45.7962V48.5159H146.882C147.201 48.422 147.549 48.2659 147.931 48.046C148.311 47.8279 148.535 47.406 148.598 46.7822C148.661 46.1881 148.901 45.7821 149.314 45.5622C149.726 45.3439 150.043 45.2579 150.265 45.3038C150.488 45.3518 150.631 45.4298 150.694 45.5399C150.759 45.6481 150.789 45.7662 150.789 45.8901C150.789 45.984 150.751 46.0941 150.671 46.2181C150.592 46.3441 150.431 46.3978 150.194 46.3821C149.956 46.3678 149.805 46.2661 149.742 46.0778C149.71 45.9539 149.647 45.8901 149.551 45.8901C149.519 45.8901 149.431 45.9381 149.289 46.0319C149.147 46.1258 149.011 46.5318 148.884 47.25C148.756 47.968 148.248 48.422 147.36 48.6098C147.964 48.6398 148.478 48.712 148.907 48.8201C149.336 48.9298 149.647 49.1882 149.836 49.5941C150.027 50.0001 150.122 50.4541 150.122 50.954C150.09 51.4839 150.171 51.7338 150.36 51.7043C150.551 51.672 150.671 51.4759 150.718 51.118C150.765 50.7579 150.846 50.6799 150.956 50.8821C151.068 51.0859 151.139 51.3199 151.171 51.5861ZM158.246 52.2658C158.453 52.2658 158.65 52.2658 158.841 52.2658V52.4999H156.697V52.2658C157.205 52.3279 157.554 52.1102 157.746 51.6099L160.27 45.1878L162.986 51.3279C163.21 51.8599 163.385 52.1482 163.511 52.1962C163.639 52.2421 163.828 52.2658 164.082 52.2658V52.4999H161.748V52.2658C161.874 52.2658 162.018 52.2579 162.177 52.2421C162.336 52.2262 162.415 52.1719 162.415 52.0781C162.415 51.9842 162.368 51.8439 162.272 51.6558L161.606 50.016H158.699L158.032 51.6558C157.967 51.7818 157.936 51.922 157.936 52.0781C157.936 52.2041 158.04 52.2658 158.246 52.2658ZM160.128 46.36L158.794 49.7338H161.51L160.128 46.36ZM174.85 49.2899C174.595 48.9298 174.15 48.7342 173.516 48.7042H172.992V51.75C173.055 51.9679 173.404 52.0622 174.041 52.0322V52.3122H171.276V52.0781C171.849 52.1102 172.197 52 172.325 51.75V48.7042H171.658C171.18 48.7658 170.825 48.9139 170.585 49.1481C170.347 49.3822 170.18 49.7038 170.085 50.1098C169.991 50.5159 169.879 50.954 169.751 51.4221C169.625 51.8899 169.451 52.164 169.229 52.2421C169.005 52.3201 168.847 52.3602 168.751 52.3602C168.56 52.3602 168.379 52.2901 168.205 52.1482C168.029 52.0079 167.926 51.7739 167.893 51.4459C167.863 51.118 167.893 50.954 167.989 50.954C168.021 50.954 168.084 50.9999 168.18 51.0941C168.371 51.3758 168.53 51.5319 168.656 51.5619C168.784 51.594 168.887 51.516 168.967 51.3279C169.046 51.14 169.148 50.828 169.276 50.3899C169.371 49.9542 169.568 49.5461 169.871 49.1718C170.172 48.7959 170.705 48.578 171.467 48.5159C170.863 48.4842 170.418 48.218 170.133 47.7181C169.847 47.2179 169.563 46.5781 169.276 45.7962C169.148 45.9539 169.005 46.0319 168.847 46.0319C168.784 46.0319 168.697 46.0082 168.584 45.9618C168.473 45.9138 168.393 45.7962 168.347 45.6101C168.298 45.4219 168.363 45.2738 168.538 45.164C168.713 45.0539 168.847 45 168.942 45C169.038 45 169.172 45.0539 169.347 45.164C169.522 45.2738 169.641 45.4219 169.705 45.6101C169.737 45.7962 169.847 46.148 170.038 46.6641C170.229 47.1799 170.451 47.5859 170.705 47.882C170.959 48.18 171.404 48.3599 172.038 48.422H172.325V45.9381C172.325 45.6559 172.183 45.5158 171.896 45.5158H171.276V45.2342H174.041V45.5158H173.421C173.134 45.5158 172.992 45.6559 172.992 45.9381V48.422H173.325C174.057 48.3599 174.557 48.0783 174.825 47.5779C175.096 47.078 175.295 46.6098 175.421 46.1722C175.517 45.7341 175.636 45.4541 175.779 45.328C175.921 45.2042 176.073 45.1398 176.232 45.1398C176.358 45.1398 176.494 45.1878 176.637 45.2822C176.779 45.376 176.852 45.4841 176.852 45.6101C176.852 45.7039 176.803 45.8199 176.707 45.9618C176.612 46.1021 176.517 46.1722 176.423 46.1722C176.295 46.1722 176.137 46.0941 175.945 45.9381C175.724 46.594 175.478 47.164 175.207 47.648C174.937 48.132 174.484 48.422 173.849 48.5159C174.612 48.6098 175.159 48.8681 175.494 49.2899C175.827 49.7122 176.041 50.1098 176.137 50.4841C176.232 50.8601 176.319 51.1559 176.399 51.3758C176.478 51.594 176.581 51.6879 176.707 51.6558C176.835 51.6262 176.931 51.438 176.994 51.0941C177.057 50.7499 177.161 50.7959 177.303 51.2339C177.445 51.672 177.423 51.9922 177.232 52.1962C177.041 52.3982 176.828 52.4919 176.589 52.4762C176.35 52.4619 176.128 52.3438 175.921 52.126C175.715 51.9062 175.549 51.468 175.421 50.8121C175.295 50.1561 175.104 49.648 174.85 49.2899ZM188.571 54H188.429C188.142 53.062 187.778 52.5458 187.333 52.4541H182.139C181.759 52.5458 181.44 53.0461 181.186 53.9541H180.997L181.091 52.0781H182.093C182.505 51.36 182.79 50.4921 182.95 49.4761C183.109 48.462 183.219 47.328 183.284 46.0778C183.284 45.7662 183.14 45.6101 182.855 45.6101H182.044V45.2342H188.429V45.6559C187.762 45.5938 187.396 45.7182 187.333 46.0319V51.6558C187.396 51.9062 187.618 52.0459 188 52.0781H188.524L188.571 54ZM183.402 49.4998C183.227 50.5621 182.965 51.4221 182.615 52.0781H186.046C186.427 52.1398 186.601 51.9379 186.571 51.468V45.984C186.601 45.7662 186.443 45.6402 186.093 45.6101H184.235C183.886 45.6101 183.727 45.7341 183.76 45.984C183.696 47.2659 183.577 48.4379 183.402 49.4998ZM200.388 48.9841C200.388 49.9838 200.055 50.8121 199.386 51.468C198.719 52.126 197.894 52.4461 196.91 52.4298C195.924 52.4139 195.139 52.0459 194.552 51.3279C193.962 50.6101 193.67 49.7898 193.67 48.8681C193.67 47.9459 193.924 47.1719 194.432 46.546C194.94 45.9218 195.416 45.5458 195.861 45.4219C196.306 45.2959 196.702 45.2342 197.052 45.2342C197.402 45.2342 197.798 45.2959 198.243 45.4219C198.688 45.5458 199.156 45.9218 199.648 46.546C200.142 47.1719 200.388 47.9839 200.388 48.9841ZM195.098 46.64C194.718 47.204 194.536 47.9459 194.552 48.8681C194.565 49.7898 194.782 50.5321 195.194 51.0941C195.607 51.6558 195.964 51.9758 196.266 52.0539C196.568 52.1319 196.831 52.1719 197.052 52.1719C197.274 52.1719 197.528 52.1319 197.814 52.0539C198.101 51.9758 198.457 51.6558 198.886 51.0941C199.314 50.5321 199.53 49.7898 199.53 48.8681C199.53 47.9459 199.347 47.204 198.981 46.64C198.617 46.0778 198.251 45.7341 197.886 45.6101C197.52 45.4841 197.243 45.4219 197.052 45.4219C196.861 45.4219 196.585 45.4841 196.218 45.6101C195.853 45.7341 195.481 46.0778 195.098 46.64ZM213.536 45.4678C212.869 45.4678 212.536 45.5938 212.536 45.8442V51.6558C212.473 52 212.79 52.1719 213.489 52.1719V52.4061H210.583V52.1719C211.345 52.1719 211.711 52 211.678 51.6558V45.8901L208.962 52.4999L206.246 45.6559V51.7043C206.375 52.0159 206.708 52.1719 207.249 52.1719V52.4061H204.913V52.1719C205.549 52.1719 205.899 52.0159 205.962 51.7043V45.7962C205.962 45.5779 205.613 45.4678 204.913 45.4678V45.2342H207.057L209.249 50.9999L211.583 45.2342H213.536V45.4678ZM220.397 45.2342L220.35 45.4678C219.809 45.4678 219.541 45.5321 219.541 45.6559C219.541 45.6882 219.556 45.7182 219.588 45.7498L221.542 49.8762L223.495 45.8442C223.558 45.5938 223.4 45.4678 223.018 45.4678V45.2342H225.02V45.4678C224.353 45.4382 223.954 45.5779 223.828 45.8901C222.017 49.7038 220.954 51.75 220.637 52.0322C220.318 52.3122 219.962 52.4619 219.563 52.4762C219.167 52.4919 218.85 52.3602 218.61 52.0781C218.372 51.796 218.254 51.546 218.254 51.3279C218.254 51.11 218.309 50.946 218.421 50.8359C218.531 50.7261 218.651 50.6719 218.779 50.6719C218.905 50.6719 219.033 50.6961 219.159 50.742C219.287 50.79 219.342 50.9301 219.326 51.1639C219.309 51.3979 219.159 51.5783 218.872 51.7043C219.063 52.0159 219.293 52.1719 219.563 52.1719C219.834 52.1719 220.072 52.0859 220.279 51.914C220.484 51.7422 220.747 51.3441 221.066 50.7179L218.73 45.8442C218.572 45.5938 218.238 45.4678 217.73 45.4678V45.2342H220.397Z" fill="white"/>
</svg>
