<svg width="155" height="92" viewBox="0 0 155 92" fill="none" xmlns="http://www.w3.org/2000/svg">
<path fill-rule="evenodd" clip-rule="evenodd" d="M35.9399 41.2429L41.8321 56.8232H38.3567L36.7359 52.2487H30.8684L29.2229 56.8232H26.0718L31.9271 41.2429H35.9399ZM36.145 50.2375L35.0293 47.0785C34.8854 46.6335 34.508 45.3554 33.8965 43.2438H33.6831C33.2729 44.7028 32.8791 45.9745 32.5017 47.0587L31.4718 50.2375H36.145ZM60.7809 54.755H62.4264V59.5538H59.7221V56.8232H47.8189V59.5538H45.1148V54.755H46.8585C47.5151 53.4466 47.9746 52.0244 48.2415 50.4886C48.4588 49.2003 48.5655 47.6577 48.5655 45.8605V41.2429H60.7809V54.755ZM57.531 54.755V43.3309H51.7866V45.8605C51.7866 49.5348 51.2287 52.4998 50.1168 54.755H57.531ZM78.5353 51.4053V56.8232H75.3102V51.4022L73.5952 49.6955L68.9669 56.8232H65.516L71.5518 47.7044L66.0328 41.2429H69.5083L75.3102 48.3102V41.2429H78.5353V48.3102L84.292 41.2429H87.7674L82.2486 47.7044L88.309 56.8232H84.8583L80.2055 49.7221L78.5353 51.4053ZM92.5272 41.2429H95.5801V47.7815C95.5801 49.4713 95.4981 51.3719 95.3298 53.4902H95.6746C96.3885 51.6865 97.2339 49.903 98.2144 48.1461L102.178 41.2429H107.18V56.8232H104.127V49.2771C104.127 47.2526 104.184 45.3755 104.295 43.652H103.959C103.126 45.3318 102.211 47.0451 101.218 48.7952L96.5895 56.8232H92.5272V41.2429ZM128.061 41.2429V56.8232H124.709V43.3107H117.06V56.8232H113.708V41.2429H128.061Z" fill="#151616"/>
<path fill-rule="evenodd" clip-rule="evenodd" d="M86.0617 27.2441C89.2696 17.7006 70.6009 14.2988 68.1902 23.7617C65.7222 33.4496 82.8748 36.7248 86.0617 27.2441Z" fill="black"/>
<path fill-rule="evenodd" clip-rule="evenodd" d="M87.1795 29.0273C86.5912 29.5533 84.5206 31.73 84.4683 32.3624L89.1324 32.6466C89.0151 31.7654 87.9835 29.5764 87.1795 29.0273Z" fill="black"/>
<path fill-rule="evenodd" clip-rule="evenodd" d="M84.438 18.8747L87.1797 22.0057C87.9728 21.425 88.9414 19.2841 89.1295 18.386C87.7185 18.3863 85.5503 18.2836 84.438 18.8747Z" fill="black"/>
<path fill-rule="evenodd" clip-rule="evenodd" d="M65.1611 18.6499C65.1963 19.2256 66.5108 21.6474 67.2166 21.987C68.2976 20.2754 68.9328 20.1055 69.9667 18.8387C69.1984 18.5723 66.7747 18.2652 65.8452 18.4331C65.2417 18.542 65.5361 18.4578 65.1611 18.6499Z" fill="black"/>
<path fill-rule="evenodd" clip-rule="evenodd" d="M81.6741 36.8829C82.351 36.0434 82.7303 34.3264 82.7446 33.1021C81.7517 33.2882 81.402 33.5595 80.5402 33.8008C79.502 34.0916 79.2066 33.8732 78.3105 34.2397C78.5435 35.2257 80.5016 36.367 81.6741 36.8829Z" fill="black"/>
<path fill-rule="evenodd" clip-rule="evenodd" d="M75.995 34.2636L71.3257 33.1165L72.4804 36.9394C73.4363 36.5456 75.853 35.0185 75.995 34.2636Z" fill="black"/>
<path fill-rule="evenodd" clip-rule="evenodd" d="M66.435 27.4386C66.3242 26.4056 66.1327 24.5821 66.5648 23.6509C65.2517 23.5915 63.3745 24.7645 62.4028 25.4037C62.9235 26.215 65.2741 27.2256 66.435 27.4386Z" fill="black"/>
<path fill-rule="evenodd" clip-rule="evenodd" d="M69.7293 32.2538C69.8207 31.9313 69.889 32.2105 69.5918 31.8066L68.4447 30.7228C66.8896 29.0564 67.9592 29.4485 66.8824 29.064C66.3816 29.6838 65.052 31.8491 65.1744 32.6938L69.7293 32.2538Z" fill="black"/>
<path fill-rule="evenodd" clip-rule="evenodd" d="M78.2974 16.7992C80.452 16.8904 80.8877 17.4658 82.7326 17.9259C82.7388 17.0203 82.3424 14.9281 81.6526 14.1387C80.5706 14.7077 78.6457 15.7167 78.2974 16.7992Z" fill="black"/>
<path fill-rule="evenodd" clip-rule="evenodd" d="M91.8153 25.4319C90.6657 24.6326 89.0737 23.8877 87.8327 23.4431C87.6753 24.3748 88.0081 24.4222 88.0261 25.4005C88.0425 26.298 87.7712 26.609 87.7349 27.5148C88.7221 27.3214 91.2441 26.1213 91.8153 25.4319Z" fill="black"/>
<path fill-rule="evenodd" clip-rule="evenodd" d="M71.373 17.9162C73.173 17.556 73.9071 16.8332 76.0762 16.7992C75.7893 15.9589 73.6388 14.6368 72.6707 14.1414C72.6377 14.1797 72.5862 14.1947 72.575 14.2581L71.8856 15.8792C71.7318 16.4423 71.4969 17.2526 71.373 17.9162Z" fill="black"/>
<path fill-rule="evenodd" clip-rule="evenodd" d="M69.964 33.759L66.3901 33.8071C66.5434 35.0138 69.1113 36.3372 70.6361 36.4819L69.964 33.759Z" fill="black"/>
<path fill-rule="evenodd" clip-rule="evenodd" d="M62.0181 27.299C62.3723 28.201 62.2254 29.1288 63.0356 30.371C63.6727 31.3481 63.0442 30.7718 63.9707 31.1602L65.1754 28.6263C64.3703 28.0729 63.044 27.2443 62.0181 27.299Z" fill="black"/>
<path fill-rule="evenodd" clip-rule="evenodd" d="M62.0439 23.7149C62.8578 23.7406 64.5298 22.8381 65.1383 22.3629L63.902 19.8135C62.6579 20.3633 62.2095 22.7043 62.0439 23.7149Z" fill="black"/>
<path fill-rule="evenodd" clip-rule="evenodd" d="M83.7329 14.6924L84.5725 17.1303C84.5934 17.1631 84.6426 17.2283 84.6812 17.2754C85.9586 17.2744 87.0668 17.359 88.0012 16.7968C87.0837 15.9485 85.0135 14.3798 83.7329 14.6924Z" fill="black"/>
<path fill-rule="evenodd" clip-rule="evenodd" d="M83.6685 36.4182C84.9175 36.4925 87.8317 34.9112 87.8976 33.8294L84.6814 33.7432L83.6685 36.4182Z" fill="black"/>
<path fill-rule="evenodd" clip-rule="evenodd" d="M79.313 13.1777H74.9691C74.6807 13.5901 74.8531 13.2485 74.7725 13.8014L76.888 15.2276C78.0298 15.0016 79.4615 14.1537 79.313 13.1777Z" fill="black"/>
<path fill-rule="evenodd" clip-rule="evenodd" d="M74.6641 37.4027C75.8032 38.1208 78.5744 38.0971 79.7513 37.3313L77.0599 35.6252L74.6641 37.4027Z" fill="black"/>
<path fill-rule="evenodd" clip-rule="evenodd" d="M66.2476 16.9352L69.6678 17.3359L70.582 14.5593C69.0328 14.6717 67.0193 15.9196 66.2476 16.9352Z" fill="black"/>
<path fill-rule="evenodd" clip-rule="evenodd" d="M89.123 22.5187L92.1141 23.7699C92.1116 22.6623 91.4002 20.473 90.3864 19.8452C89.906 20.5301 89.2195 21.609 89.123 22.5187Z" fill="black"/>
<path fill-rule="evenodd" clip-rule="evenodd" d="M90.5347 31.1147C91.2947 30.519 92.1784 28.1911 92.0483 27.1777L89.147 28.5731C89.2679 29.9644 90.3983 30.9775 90.3984 30.9773C90.4187 30.9406 90.488 31.0698 90.5347 31.1147Z" fill="black"/>
<path fill-rule="evenodd" clip-rule="evenodd" d="M14.5648 63.1901C14.3048 63.1901 14.1866 63.2975 14.213 63.5096C14.213 64.826 14.1414 65.7648 13.9981 66.3275C13.855 66.8899 13.6266 67.2989 13.3151 67.5529C13.002 67.8083 12.7104 67.9308 12.4355 67.9197C12.1623 67.9089 11.9488 67.8505 11.7925 67.7445C11.6356 67.6385 11.5443 67.5163 11.5193 67.3777C11.4925 67.2405 11.5254 67.1127 11.6159 66.9959C11.7073 66.8791 11.8307 66.8207 11.9874 66.8207C12.1439 66.8207 12.2471 66.8683 12.2989 66.9647C12.3521 67.0597 12.3771 67.1291 12.3771 67.1711C12.3771 67.2351 12.3256 67.2989 12.2224 67.3627C12.1439 67.4049 12.1039 67.4469 12.1039 67.4891C12.1039 67.5529 12.1504 67.6019 12.2405 67.6331C12.3322 67.6643 12.4171 67.6808 12.4956 67.6808C12.5988 67.6808 12.7153 67.6496 12.847 67.5855C12.977 67.5217 13.1202 67.3831 13.2752 67.1711C13.4316 66.9593 13.5752 66.6141 13.7048 66.1359C13.8348 65.6591 13.8998 64.7718 13.8998 63.477C13.9267 63.3072 13.8348 63.2119 13.6266 63.1901H13.042V63.0314H17.9999V63.1901C17.4803 63.17 17.1935 63.2649 17.1421 63.477V67.3939C17.1154 67.5855 17.3635 67.67 17.8834 67.6496V67.8083H15.6575V67.6496C16.2039 67.67 16.4907 67.5747 16.5171 67.3627V63.477C16.5421 63.2868 16.4258 63.1901 16.1657 63.1901H14.5648ZM23.896 63.0314L23.8577 63.1901C23.4146 63.1901 23.1946 63.2338 23.1946 63.3179C23.1946 63.3398 23.2068 63.3602 23.2331 63.3817L24.8341 66.1849L26.435 63.4458C26.4868 63.2757 26.3568 63.1901 26.0436 63.1901V63.0314H27.6845V63.1901C27.1381 63.17 26.8115 63.2649 26.7082 63.477C25.2237 66.0678 24.3527 67.4579 24.0926 67.6496C23.831 67.8398 23.5393 67.9415 23.213 67.9512C22.8879 67.9619 22.6283 67.8724 22.4315 67.6808C22.2365 67.4891 22.1399 67.3193 22.1399 67.1711C22.1399 67.0231 22.1852 66.9117 22.2765 66.8369C22.3665 66.7623 22.465 66.7255 22.5699 66.7255C22.6732 66.7255 22.7782 66.7419 22.8814 66.7731C22.9864 66.8057 23.0315 66.9009 23.018 67.0597C23.0048 67.2187 22.8814 67.3412 22.6463 67.4268C22.8032 67.6385 22.9915 67.7445 23.213 67.7445C23.4347 67.7445 23.6294 67.6861 23.7993 67.5693C23.9676 67.4526 24.1826 67.1821 24.4441 66.7567L22.53 63.4458C22.4 63.2757 22.1267 63.1901 21.7104 63.1901V63.0314H23.896ZM37.9921 63.1901C37.3157 63.17 36.9911 63.2868 37.0157 63.5408V67.4268C37.0157 67.6589 37.3292 67.7664 37.9539 67.7445V67.9036H35.4148V67.7445C36.0148 67.7664 36.3393 67.6496 36.3912 67.3939V65.5789C35.7666 65.7909 35.3115 65.9238 35.0251 65.9768C34.7384 66.0299 34.452 66.0571 34.1652 66.0571C34.0352 66.0571 33.809 66.0463 33.4822 66.0245C33.1572 66.0041 32.891 65.9185 32.6825 65.7705C32.4743 65.6208 32.3578 65.398 32.331 65.1018V63.6045C32.3043 63.3287 32.1611 63.1901 31.9011 63.1901H31.4332V63.0314H33.932V63.1901H33.3856C33.1243 63.2119 33.0074 63.3287 33.0343 63.5408V64.9742C33.1124 65.3561 33.3522 65.5678 33.7554 65.6115C34.1604 65.6534 34.452 65.6752 34.6352 65.6752C35.2066 65.6752 35.7929 65.5585 36.3912 65.3246V63.5733C36.3143 63.3179 36.0011 63.1901 35.4548 63.1901V63.0314H37.9921V63.1901ZM45.0995 67.3939C45.0726 67.5855 45.1908 67.6915 45.4509 67.7133H47.2085C47.4686 67.6915 47.6249 67.5747 47.6768 67.3627V63.477C47.6249 63.3072 47.3254 63.2227 46.7786 63.2227V63.0314H49.2378V63.2227C48.6396 63.2227 48.3399 63.3072 48.3399 63.477V67.3939C48.3149 67.6277 48.5881 67.7445 49.1595 67.7445V67.9362H40.258V67.7445C40.7777 67.7445 41.0262 67.6385 40.9993 67.4268V63.5408C41.0262 63.3287 40.7644 63.2227 40.218 63.2227V63.0314H42.5621V63.2227C42.014 63.2227 41.7157 63.3398 41.6626 63.5733V67.3939C41.7157 67.5855 41.8972 67.6915 42.2107 67.7133H43.8881C44.1749 67.6915 44.358 67.5855 44.4362 67.3939V63.477C44.358 63.3072 44.0848 63.2227 43.6149 63.2227V63.0314H45.8808V63.2227C45.3077 63.2227 45.0476 63.3072 45.0995 63.477V67.3939ZM52.9079 67.4579V63.477C52.9346 63.2649 52.5697 63.17 51.8151 63.1901V63.0314H57.3996V64.5924H57.2812C57.1264 63.7854 56.6833 63.3179 55.9551 63.1901H54.0027C53.6646 63.17 53.5078 63.2868 53.5328 63.5408V65.2608H54.9788C55.317 65.1752 55.4737 64.7622 55.4469 64.019H55.6419V66.6305H55.4469C55.4469 65.9715 55.2906 65.5789 54.9788 65.451H53.5328V67.4268C53.5078 67.6385 53.6378 67.7445 53.9242 67.7445H56.0319C56.8133 67.6589 57.2947 67.1073 57.4779 66.0882H57.5946V67.9036H51.8151V67.7445C52.4915 67.7664 52.8565 67.67 52.9079 67.4579ZM62.904 67.4579V63.477C62.9307 63.2649 62.5658 63.17 61.8111 63.1901V63.0314H67.3958V64.5924H67.2772C67.1226 63.7854 66.6795 63.3179 65.9512 63.1901H63.9989C63.6607 63.17 63.5039 63.2868 63.5289 63.5408V65.2608H64.9748C65.3131 65.1752 65.4698 64.7622 65.4431 64.019H65.6381V66.6305H65.4431C65.4431 65.9715 65.2866 65.5789 64.9748 65.451H63.5289V67.4268C63.5039 67.6385 63.6338 67.7445 63.9203 67.7445H66.028C66.8094 67.6589 67.2908 67.1073 67.474 66.0882H67.5908V67.9036H61.8111V67.7445C62.4876 67.7664 62.8525 67.67 62.904 67.4579ZM82.1168 67.3465C82.142 67.5271 82.077 67.6808 81.9219 67.8083C81.7652 67.9362 81.5437 67.9784 81.257 67.9362C80.9706 67.8928 80.7756 67.7814 80.6724 67.6019C80.5674 67.4211 80.4892 67.0869 80.4373 66.5979C80.3859 66.1101 80.2423 65.8124 80.0078 65.7064C79.7728 65.6007 79.5061 65.5259 79.2079 65.4836C78.908 65.4417 78.6015 65.4198 78.29 65.4198V67.4579C78.3415 67.6496 78.6147 67.7445 79.1096 67.7445V67.9036H76.8837V67.7445C77.3518 67.7664 77.6136 67.67 77.665 67.4579V63.4458C77.6136 63.2757 77.3518 63.1901 76.8837 63.1901V63.0314H79.1096V63.1901C78.5632 63.1901 78.29 63.2649 78.29 63.4132V65.2608H78.6015C78.8631 65.197 79.1478 65.091 79.461 64.9416C79.7728 64.7934 79.9559 64.5068 80.0078 64.083C80.0592 63.6794 80.2559 63.4036 80.5941 63.2542C80.9323 63.1059 81.1923 63.0475 81.3737 63.0787C81.5569 63.1113 81.6737 63.1643 81.7252 63.2391C81.7786 63.3126 81.8037 63.3928 81.8037 63.477C81.8037 63.5408 81.7721 63.6156 81.707 63.6998C81.642 63.7854 81.5104 63.8219 81.3154 63.8112C81.1204 63.8015 80.9973 63.7324 80.9456 63.6045C80.9187 63.5203 80.8673 63.477 80.7891 63.477C80.7624 63.477 80.6908 63.5096 80.5739 63.5733C80.4575 63.6371 80.346 63.9129 80.2423 64.4008C80.1374 64.8886 79.721 65.197 78.9932 65.3246C79.4878 65.345 79.9094 65.394 80.2607 65.4675C80.6122 65.542 80.8673 65.7175 81.0223 65.9933C81.1788 66.2691 81.257 66.5775 81.257 66.9171C81.2305 67.2771 81.297 67.4469 81.452 67.4268C81.6087 67.4049 81.707 67.2717 81.7453 67.0285C81.7836 66.7839 81.8503 66.7309 81.9403 66.8683C82.0317 67.0067 82.0901 67.1657 82.1168 67.3465ZM87.9145 67.8083C88.0846 67.8083 88.2462 67.8083 88.4025 67.8083V67.9673H86.6451V67.8083C87.0616 67.8505 87.348 67.7026 87.5047 67.3627L89.5739 62.9999L91.7998 67.1711C91.983 67.5325 92.1262 67.7284 92.2294 67.761C92.3344 67.7922 92.4894 67.8083 92.6976 67.8083V67.9673H90.7852V67.8083C90.8885 67.8083 91.0066 67.8029 91.1367 67.7922C91.2667 67.7814 91.3316 67.7445 91.3316 67.6808C91.3316 67.617 91.293 67.5217 91.2148 67.3939L90.6684 66.2799H88.2862L87.7398 67.3939C87.6862 67.4795 87.6612 67.5747 87.6612 67.6808C87.6612 67.7664 87.7463 67.8083 87.9145 67.8083ZM89.4572 63.7962L88.3643 66.0882H90.5902L89.4572 63.7962ZM101.523 65.7866C101.314 65.542 100.95 65.4091 100.43 65.3887H100V67.4579C100.051 67.6059 100.338 67.67 100.859 67.6496V67.8398H98.5936V67.6808C99.0635 67.7026 99.3482 67.6277 99.4532 67.4579V65.3887H98.9068C98.5154 65.4306 98.2238 65.5312 98.0271 65.6903C97.8324 65.8493 97.6958 66.0678 97.6173 66.3436C97.5408 66.6195 97.4491 66.9171 97.344 67.2351C97.2409 67.5529 97.0977 67.7391 96.9158 67.7922C96.7326 67.8452 96.6027 67.8724 96.5244 67.8724C96.3677 67.8724 96.2196 67.8248 96.0765 67.7284C95.9329 67.6331 95.8481 67.4741 95.8213 67.2513C95.7963 67.0285 95.8213 66.9171 95.8999 66.9171C95.9263 66.9171 95.978 66.9483 96.0563 67.0123C96.2131 67.2037 96.3431 67.3097 96.4463 67.3301C96.5513 67.3519 96.636 67.2989 96.701 67.1711C96.766 67.0435 96.8495 66.8315 96.9545 66.5339C97.0327 66.2379 97.1943 65.9607 97.4425 65.7064C97.6888 65.451 98.1255 65.303 98.7503 65.2608C98.2554 65.2393 97.8905 65.0584 97.6572 64.7188C97.4226 64.379 97.1894 63.9444 96.9545 63.4132C96.8495 63.5203 96.7326 63.5733 96.6027 63.5733C96.5513 63.5733 96.4797 63.5572 96.3878 63.5257C96.2961 63.4931 96.2311 63.4132 96.1929 63.2868C96.1529 63.1589 96.2065 63.0583 96.3497 62.9837C96.4928 62.9089 96.6027 62.8723 96.6813 62.8723C96.7595 62.8723 96.8692 62.9089 97.0125 62.9837C97.156 63.0583 97.254 63.1589 97.3059 63.2868C97.3326 63.4132 97.4226 63.6522 97.5791 64.0028C97.7358 64.3532 97.9173 64.629 98.1255 64.8302C98.3337 65.0326 98.6986 65.1548 99.2186 65.197H99.4532V63.5096C99.4532 63.3179 99.3368 63.2227 99.1018 63.2227H98.5936V63.0314H100.859V63.2227H100.351C100.116 63.2227 100 63.3179 100 63.5096V65.197H100.273C100.873 65.1548 101.283 64.9635 101.503 64.6236C101.724 64.284 101.887 63.9659 101.991 63.6686C102.069 63.371 102.167 63.1808 102.284 63.0951C102.401 63.011 102.526 62.9673 102.656 62.9673C102.759 62.9673 102.87 62.9999 102.987 63.064C103.104 63.1277 103.164 63.2012 103.164 63.2868C103.164 63.3505 103.124 63.4293 103.045 63.5257C102.967 63.621 102.889 63.6686 102.812 63.6686C102.707 63.6686 102.577 63.6156 102.42 63.5096C102.239 63.9552 102.038 64.3424 101.816 64.6712C101.594 65 101.223 65.197 100.703 65.2608C101.328 65.3246 101.776 65.5001 102.051 65.7866C102.324 66.0735 102.499 66.3436 102.577 66.5979C102.656 66.8533 102.727 67.0543 102.792 67.2037C102.857 67.3519 102.942 67.4157 103.045 67.3939C103.15 67.3738 103.229 67.2459 103.28 67.0123C103.332 66.7785 103.417 66.8097 103.533 67.1073C103.65 67.4049 103.632 67.6224 103.475 67.761C103.319 67.8982 103.144 67.9619 102.948 67.9512C102.752 67.9415 102.57 67.8613 102.401 67.7133C102.232 67.564 102.096 67.2663 101.991 66.8207C101.887 66.3751 101.731 66.0299 101.523 65.7866ZM112.768 68.9864H112.652C112.417 68.3492 112.118 67.9985 111.753 67.9362H107.497C107.186 67.9985 106.924 68.3384 106.716 68.9552H106.561L106.637 67.6808H107.459C107.797 67.1929 108.03 66.6033 108.161 65.9131C108.291 65.2242 108.382 64.4538 108.435 63.6045C108.435 63.3928 108.317 63.2868 108.083 63.2868H107.419V63.0314H112.652V63.3179C112.105 63.2757 111.805 63.3602 111.753 63.5733V67.3939C111.805 67.564 111.987 67.6589 112.3 67.6808H112.73L112.768 68.9864ZM108.531 65.9292C108.388 66.6509 108.173 67.2351 107.887 67.6808H110.699C111.011 67.7227 111.154 67.5855 111.129 67.2663V63.5408C111.154 63.3928 111.024 63.3072 110.737 63.2868H109.215C108.928 63.2868 108.798 63.371 108.825 63.5408C108.773 64.4116 108.675 65.2078 108.531 65.9292ZM122.453 65.5789C122.453 66.258 122.18 66.8207 121.631 67.2663C121.085 67.7133 120.409 67.9308 119.602 67.9197C118.794 67.9089 118.151 67.6589 117.67 67.1711C117.186 66.6835 116.947 66.1262 116.947 65.5001C116.947 64.8736 117.155 64.3478 117.571 63.9226C117.988 63.4985 118.378 63.2431 118.743 63.1589C119.107 63.0733 119.432 63.0314 119.719 63.0314C120.005 63.0314 120.33 63.0733 120.695 63.1589C121.06 63.2431 121.443 63.4985 121.846 63.9226C122.251 64.3478 122.453 64.8994 122.453 65.5789ZM118.118 63.9864C117.806 64.3696 117.656 64.8736 117.67 65.5001C117.681 66.1262 117.858 66.6305 118.196 67.0123C118.534 67.3939 118.827 67.6113 119.074 67.6643C119.322 67.7173 119.537 67.7445 119.719 67.7445C119.9 67.7445 120.109 67.7173 120.344 67.6643C120.578 67.6113 120.87 67.3939 121.222 67.0123C121.573 66.6305 121.749 66.1262 121.749 65.5001C121.749 64.8736 121.6 64.3696 121.3 63.9864C121.002 63.6045 120.702 63.371 120.402 63.2868C120.102 63.2012 119.875 63.1589 119.719 63.1589C119.562 63.1589 119.336 63.2012 119.036 63.2868C118.736 63.371 118.431 63.6045 118.118 63.9864ZM133.228 63.1901C132.682 63.1901 132.409 63.2757 132.409 63.4458V67.3939C132.357 67.6277 132.617 67.7445 133.19 67.7445V67.9036H130.808V67.7445C131.432 67.7445 131.732 67.6277 131.706 67.3939V63.477L129.48 67.9673L127.254 63.3179V67.4268C127.359 67.6385 127.632 67.7445 128.076 67.7445V67.9036H126.161V67.7445C126.683 67.7445 126.969 67.6385 127.021 67.4268V63.4132C127.021 63.2649 126.735 63.1901 126.161 63.1901V63.0314H127.919L129.715 66.9483L131.627 63.0314H133.228V63.1901ZM138.851 63.0314L138.813 63.1901C138.37 63.1901 138.15 63.2338 138.15 63.3179C138.15 63.3398 138.162 63.3602 138.188 63.3817L139.789 66.1849L141.39 63.4458C141.442 63.2757 141.312 63.1901 140.999 63.1901V63.0314H142.64V63.1901C142.093 63.17 141.767 63.2649 141.663 63.477C140.179 66.0678 139.308 67.4579 139.048 67.6496C138.786 67.8398 138.495 67.9415 138.168 67.9512C137.843 67.9619 137.584 67.8724 137.387 67.6808C137.192 67.4891 137.095 67.3193 137.095 67.1711C137.095 67.0231 137.14 66.9117 137.232 66.8369C137.322 66.7623 137.42 66.7255 137.525 66.7255C137.628 66.7255 137.733 66.7419 137.837 66.7731C137.942 66.8057 137.987 66.9009 137.973 67.0597C137.96 67.2187 137.837 67.3412 137.602 67.4268C137.758 67.6385 137.947 67.7445 138.168 67.7445C138.39 67.7445 138.585 67.6861 138.755 67.5693C138.923 67.4526 139.138 67.1821 139.399 66.7567L137.485 63.4458C137.355 63.2757 137.082 63.1901 136.666 63.1901V63.0314H138.851Z" fill="#151616"/>
</svg>
