<svg width="25" height="25" viewBox="0 0 25 25" fill="none" xmlns="http://www.w3.org/2000/svg">
<path fill-rule="evenodd" clip-rule="evenodd" d="M19.6079 14.0663C22.2242 4.52268 6.99924 1.12098 5.03324 10.5838C3.02054 20.2717 17.009 23.547 19.6079 14.0663Z" fill="black"/>
<path fill-rule="evenodd" clip-rule="evenodd" d="M20.5198 15.8495C20.04 16.3756 18.3514 18.5523 18.3086 19.1847L22.1125 19.4689C22.0168 18.5877 21.1755 16.3986 20.5198 15.8495Z" fill="black"/>
<path fill-rule="evenodd" clip-rule="evenodd" d="M18.2842 5.69689L20.5202 8.82789C21.1669 8.24709 21.9569 6.10629 22.1103 5.20819C20.9596 5.20849 19.1912 5.10579 18.2842 5.69689Z" fill="black"/>
<path fill-rule="evenodd" clip-rule="evenodd" d="M2.56348 5.47225C2.59218 6.04795 3.66418 8.46975 4.23978 8.80935C5.12138 7.09775 5.63928 6.92785 6.48258 5.66095C5.85588 5.39455 3.87928 5.08755 3.12128 5.25535C2.62918 5.36435 2.86918 5.28005 2.56348 5.47225Z" fill="black"/>
<path fill-rule="evenodd" clip-rule="evenodd" d="M16.0302 23.7052C16.5822 22.8657 16.8916 21.1487 16.9032 19.9243C16.0935 20.1105 15.8083 20.3817 15.1055 20.623C14.2588 20.9138 14.0178 20.6955 13.2871 21.062C13.4771 22.048 15.074 23.1893 16.0302 23.7052Z" fill="black"/>
<path fill-rule="evenodd" clip-rule="evenodd" d="M11.3988 21.0859L7.59082 19.9388L8.53252 23.7616C9.31202 23.3678 11.283 21.8407 11.3988 21.0859Z" fill="black"/>
<path fill-rule="evenodd" clip-rule="evenodd" d="M3.60197 14.2607C3.51157 13.2276 3.35538 11.4042 3.70778 10.473C2.63688 10.4136 1.10598 11.5866 0.313477 12.2258C0.738177 13.0371 2.65517 14.0477 3.60197 14.2607Z" fill="black"/>
<path fill-rule="evenodd" clip-rule="evenodd" d="M6.28854 19.0761C6.36314 18.7536 6.41884 19.0328 6.17644 18.6289L5.24084 17.5451C3.97274 15.8787 4.84494 16.2708 3.96674 15.8862C3.55844 16.5061 2.47404 18.6713 2.57384 19.516L6.28854 19.0761Z" fill="black"/>
<path fill-rule="evenodd" clip-rule="evenodd" d="M13.2764 3.62156C15.0337 3.71266 15.389 4.28816 16.8935 4.74826C16.8985 3.84266 16.5753 1.75046 16.0128 0.96106C15.1303 1.53006 13.5605 2.53906 13.2764 3.62156Z" fill="black"/>
<path fill-rule="evenodd" clip-rule="evenodd" d="M24.3005 12.2541C23.3629 11.4547 22.0646 10.7099 21.0526 10.2653C20.9242 11.197 21.1956 11.2444 21.2102 12.2227C21.2237 13.1202 21.0024 13.4312 20.9727 14.337C21.7778 14.1436 23.8347 12.9435 24.3005 12.2541Z" fill="black"/>
<path fill-rule="evenodd" clip-rule="evenodd" d="M7.62988 4.73845C9.09768 4.37835 9.69648 3.65555 11.4654 3.62155C11.2315 2.78125 9.47768 1.45915 8.68808 0.963745C8.66128 1.00205 8.61928 1.01695 8.61008 1.08045L8.04778 2.70155C7.92248 3.26455 7.73088 4.07495 7.62988 4.73845Z" fill="black"/>
<path fill-rule="evenodd" clip-rule="evenodd" d="M6.48003 20.5811L3.56543 20.6293C3.69043 21.836 5.78463 23.1593 7.02813 23.3041L6.48003 20.5811Z" fill="black"/>
<path fill-rule="evenodd" clip-rule="evenodd" d="M0 14.1212C0.2888 15.0232 0.1691 15.9511 0.8298 17.1933C1.3494 18.1704 0.8372 17.5941 1.5924 17.9825L2.5749 15.4486C1.9183 14.8952 0.8366 14.0666 0 14.1212Z" fill="black"/>
<path fill-rule="evenodd" clip-rule="evenodd" d="M0.0214844 10.5371C0.685184 10.5627 2.04869 9.66034 2.54509 9.18514L1.53669 6.63574C0.522186 7.18554 0.156484 9.52654 0.0214844 10.5371Z" fill="black"/>
<path fill-rule="evenodd" clip-rule="evenodd" d="M17.709 1.51484L18.3938 3.95274C18.4109 3.98554 18.451 4.05074 18.4824 4.09784C19.5242 4.09674 20.428 4.18144 21.19 3.61924C20.4418 2.77094 18.7535 1.20224 17.709 1.51484Z" fill="black"/>
<path fill-rule="evenodd" clip-rule="evenodd" d="M17.6562 23.2406C18.6747 23.3149 21.0516 21.7336 21.1053 20.6518L18.4824 20.5656L17.6562 23.2406Z" fill="black"/>
<path fill-rule="evenodd" clip-rule="evenodd" d="M14.1044 0H10.5617C10.3266 0.4124 10.4671 0.0708001 10.4014 0.6237L12.1266 2.0499C13.0579 1.8238 14.2254 0.976 14.1044 0Z" fill="black"/>
<path fill-rule="evenodd" clip-rule="evenodd" d="M10.3135 24.2251C11.2425 24.9431 13.5025 24.9195 14.4622 24.1536L12.2674 22.4476L10.3135 24.2251Z" fill="black"/>
<path fill-rule="evenodd" clip-rule="evenodd" d="M3.44922 3.75761L6.23862 4.15832L6.98422 1.38171C5.72082 1.49411 4.07872 2.74201 3.44922 3.75761Z" fill="black"/>
<path fill-rule="evenodd" clip-rule="evenodd" d="M22.1045 9.3411L24.5439 10.5923C24.5422 9.4847 23.9617 7.2954 23.1348 6.6676C22.7431 7.3525 22.1832 8.4313 22.1045 9.3411Z" fill="black"/>
<path fill-rule="evenodd" clip-rule="evenodd" d="M23.2557 17.937C23.8755 17.3413 24.5961 15.0134 24.49 14L22.124 15.3953C22.2226 16.7867 23.1446 17.7996 23.1446 17.7996C23.1611 17.7629 23.2175 17.8921 23.2557 17.937Z" fill="black"/>
</svg>
