<svg version="1.0" xmlns="http://www.w3.org/2000/svg"
          width="100px" height="100px" viewBox="0 0 8861.000000 8862.000000"
          preserveAspectRatio="xMidYMid meet">
         <metadata>
         Created by potrace 1.14, written by Peter Selinger 2001-2017
         </metadata>
         <g transform="translate(0.000000,8862.000000) scale(0.100000,-0.100000)"
         fill="#000000" stroke="none">

         <path d="M57870 71353 c-1129 -48 -2079 -189 -3250 -483 -1573 -395 -3089
         -1084 -4322 -1967 -64 -45 -119 -83 -122 -83 -4 0 -94 59 -202 131 -1295 865
         -2753 1501 -4212 1839 -716 165 -1274 244 -2197 312 -118 8 -1352 12 -4667 15
         l-4508 4 0 -936 c0 -514 -1 -935 -3 -935 -2 0 -61 25 -133 56 -1356 588 -2949
         958 -4454 1035 -294 15 -1082 6 -1370 -15 -883 -66 -1749 -218 -2620 -461 -91
         -25 -268 -75 -395 -110 -1906 -532 -3676 -1496 -5085 -2769 -409 -370 -854
         -839 -1185 -1248 l-105 -130 1 -2341 c0 -1288 2 -2337 4 -2332 2 6 16 96 30
         200 190 1388 589 2711 1160 3843 620 1230 1404 2228 2415 3071 938 783 1959
         1294 3220 1612 772 195 1431 280 2170 280 551 0 985 -41 1490 -141 1149 -227
         2455 -782 3540 -1503 399 -266 740 -524 1137 -864 l183 -156 0 -10797 0
         -10798 -26 -17 c-54 -35 -397 -207 -578 -290 -496 -226 -1111 -438 -1636 -564
         -1101 -263 -2037 -339 -3050 -245 -1451 134 -2792 615 -4010 1438 -1336 903
         -2411 1953 -3379 3300 -437 607 -907 1384 -1260 2081 l-40 80 -1 -1922 0
         -1923 122 -141 c725 -842 1606 -1541 2668 -2117 651 -352 1702 -754 2488 -951
         626 -157 1269 -254 2022 -308 307 -21 1292 -25 1610 -5 649 40 1080 88 1645
         183 1156 195 2318 519 3251 909 92 38 169 70 171 70 1 0 3 -20 3 -45 l0 -45
         4553 3 c4957 3 4610 0 5197 57 1339 132 2623 468 3830 1005 816 363 1447 716
         2261 1267 26 18 26 18 120 -49 1061 -750 2313 -1370 3544 -1756 2296 -720
         4509 -798 6785 -241 263 64 494 126 935 251 1554 439 3044 1186 4312 2160 393
         302 722 591 1099 968 343 342 541 560 812 893 l92 113 0 2337 c0 1288 -4 2332
         -9 2327 -4 -6 -18 -86 -30 -180 -50 -380 -143 -885 -236 -1276 -443 -1865
         -1210 -3401 -2349 -4699 -55 -63 -218 -232 -361 -375 -1137 -1139 -2320 -1811
         -3872 -2199 -809 -202 -1506 -285 -2288 -273 -878 14 -1562 138 -2470 447
         -1370 466 -2640 1225 -3800 2271 -152 137 -614 577 -644 613 -12 15 10 40 210
         244 1188 1205 2165 2715 2819 4352 725 1814 1004 3865 809 5955 -116 1259
         -416 2476 -889 3610 -503 1206 -1173 2339 -1962 3316 -306 380 -563 664 -938
         1039 -368 368 -653 626 -1005 910 -77 62 -141 116 -143 120 -3 9 312 313 453
         435 1173 1023 2632 1683 4362 1975 1089 183 2133 167 3213 -50 1066 -214 2166
         -680 3085 -1308 390 -266 832 -601 1145 -866 513 -434 1070 -994 1521 -1526
         709 -837 1388 -1865 1919 -2903 41 -81 78 -147 83 -147 4 0 7 860 7 1911 l0
         1912 -72 86 c-361 430 -867 914 -1338 1281 -938 730 -1926 1238 -3255 1673
         -857 281 -1795 443 -2865 497 -171 9 -983 11 -1160 3z m-14600 -513 c681 -38
         1330 -152 1969 -345 1242 -377 2521 -1125 3606 -2110 138 -125 355 -336 355
         -345 0 -4 -39 -42 -87 -85 -399 -354 -895 -863 -1244 -1275 -1284 -1516 -2197
         -3283 -2689 -5205 -551 -2152 -572 -4263 -63 -6425 111 -474 315 -1096 547
         -1672 408 -1013 935 -1965 1575 -2844 516 -709 1222 -1497 1849 -2064 100 -90
         182 -167 182 -170 0 -7 -366 -352 -493 -464 -977 -862 -2127 -1542 -3251
         -1922 -755 -256 -1481 -393 -2296 -434 -119 -6 -1323 -10 -3072 -10 l-2878 0
         1 768 0 767 167 137 c1117 914 2107 2060 2867 3318 255 422 556 999 749 1435
         674 1521 1059 3167 1137 4850 13 283 7 1099 -10 1345 -71 1011 -239 2003 -471
         2775 -330 1098 -791 2142 -1365 3095 -228 378 -560 865 -833 1219 -613 797
         -1392 1608 -2119 2204 l-123 101 0 1683 0 1683 2903 0 c1854 0 2969 -4 3087
         -10z m6774 -3733 c788 -986 1405 -2055 1911 -3312 641 -1592 981 -3217 1056
         -5045 13 -321 7 -1282 -10 -1550 -71 -1109 -206 -2007 -442 -2930 -365 -1427
         -992 -2883 -1736 -4033 l-70 -109 -125 169 c-1028 1389 -1895 3062 -2418 4668
         -135 416 -193 630 -284 1050 -174 807 -281 1634 -338 2620 -18 300 -18 1525 0
         1815 62 1020 187 1864 411 2765 354 1426 882 2641 1627 3747 172 255 242 350
         254 343 6 -4 79 -93 164 -198z m-12626 -3634 c624 -1099 1129 -2272 1455
         -3383 227 -771 418 -1965 487 -3035 47 -750 45 -1654 -6 -2365 -86 -1203 -313
         -2357 -683 -3470 -321 -964 -694 -1750 -1215 -2563 -58 -89 -121 -184 -140
         -212 l-36 -50 0 7653 c0 4208 2 7652 4 7652 3 0 63 -102 134 -227z"/>
         <path d="M46193 41583 c2 -10 311 -533 686 -1162 l681 -1144 0 -843 0 -844
         230 0 230 0 0 901 0 901 495 955 c272 526 511 978 531 1004 66 90 234 214 306
         225 101 17 10 24 -289 24 -180 0 -323 -4 -317 -8 5 -5 28 -15 52 -22 56 -18
         127 -81 142 -126 30 -90 39 -70 -475 -1067 -263 -510 -481 -924 -485 -920 -8
         8 -578 963 -1027 1718 l-250 420 -258 3 c-242 2 -257 1 -252 -15z"/>
         <path d="M42680 39589 l0 -2001 813 5 c861 5 962 9 1200 58 470 95 759 345
         848 735 26 118 37 384 19 520 -50 398 -269 667 -646 793 -106 35 -311 78 -418
         88 -42 3 -76 10 -76 14 0 5 6 9 14 9 28 0 173 54 251 93 202 101 336 228 421
         402 57 117 77 209 77 370 1 164 -12 227 -75 355 -33 68 -59 102 -132 176 -147
         147 -310 232 -571 299 -282 72 -459 85 -1162 85 l-563 0 0 -2001z m1273 1927
         c273 -54 442 -138 584 -290 160 -171 224 -395 194 -681 -15 -145 -42 -239 -98
         -355 -38 -77 -63 -111 -128 -176 -138 -140 -299 -201 -510 -191 -188 8 -309
         62 -451 202 -132 130 -252 331 -317 530 -70 215 -87 342 -94 699 l-6 288 374
         -5 c281 -4 394 -9 452 -21z m-734 -1113 c83 -211 222 -396 378 -504 152 -105
         232 -127 510 -139 317 -15 419 -33 558 -100 305 -147 455 -462 455 -955 0
         -326 -54 -535 -185 -720 -80 -113 -196 -201 -337 -255 -175 -68 -325 -80 -974
         -80 l-494 0 0 1518 1 1517 34 -115 c18 -63 43 -139 54 -167z"/>
         <path d="M30825 35914 c-303 -29 -405 -47 -594 -100 -454 -129 -815 -374
         -1040 -707 -220 -326 -281 -864 -144 -1282 93 -286 313 -578 624 -825 262
         -209 582 -393 1114 -640 805 -375 1180 -602 1576 -956 211 -189 361 -378 449
         -568 114 -243 114 -445 -1 -667 -149 -287 -557 -552 -984 -640 -130 -26 -445
         -37 -595 -20 -480 56 -943 260 -1389 614 -164 130 -478 446 -615 617 -248 311
         -478 703 -652 1114 l-59 139 -3 -643 -2 -642 72 -87 c213 -255 498 -498 793
         -676 728 -438 1581 -623 2350 -509 708 104 1224 488 1404 1043 52 157 66 265
         66 486 -1 222 -18 342 -73 505 -131 385 -460 759 -924 1050 -122 76 -550 294
         -798 405 -565 253 -1019 512 -1364 776 -156 121 -460 423 -545 544 -78 110
         -163 284 -192 390 -32 120 -31 274 4 380 113 342 499 624 1001 730 304 64 610
         58 917 -20 337 -86 668 -258 983 -513 319 -258 584 -591 808 -1018 l73 -139 3
         488 2 488 -32 47 c-148 219 -351 384 -653 532 -314 154 -632 245 -1010 290
         -92 11 -498 21 -570 14z"/>
         <path d="M65940 35864 c-604 -72 -1216 -327 -1670 -694 -527 -426 -910 -997
         -1095 -1635 -162 -560 -175 -1109 -40 -1661 154 -632 437 -1131 901 -1585 242
         -237 480 -409 771 -557 329 -167 635 -265 1013 -323 171 -26 516 -36 685 -20
         437 42 903 177 1270 370 950 498 1586 1433 1710 2511 19 173 20 505 0 670 -26
         227 -82 475 -162 725 -118 368 -293 693 -542 1005 -99 124 -390 417 -513 514
         -467 371 -1046 611 -1647 681 -157 19 -523 18 -681 -1z m220 -104 c284 -22
         557 -104 847 -255 256 -133 452 -281 693 -524 186 -187 297 -321 434 -526 337
         -503 548 -1057 626 -1641 118 -876 -56 -1747 -472 -2368 -340 -509 -748 -782
         -1350 -905 -223 -46 -491 -52 -698 -16 -178 32 -424 117 -622 216 -647 323
         -1200 949 -1538 1740 -329 767 -398 1673 -190 2476 176 680 562 1232 1057
         1515 271 154 631 263 953 288 52 4 102 8 110 9 8 0 76 -4 150 -9z"/>
         <path d="M22600 35510 c0 -198 4 -360 8 -360 5 0 19 12 33 26 40 44 219 184
         304 240 383 249 905 363 1658 364 l167 0 0 -3180 0 -3180 355 0 355 0 0 3180
         0 3180 159 0 c333 0 709 -34 948 -85 379 -82 671 -225 956 -470 48 -41 89 -75
         92 -75 3 0 5 162 5 360 l0 360 -2520 0 -2520 0 0 -360z"/>
         <path d="M40130 32645 l0 -3225 365 0 365 0 1 2523 1 2522 29 -110 c215 -807
         609 -1279 1164 -1396 54 -11 168 -23 285 -28 346 -17 504 -72 679 -236 200
         -188 307 -451 391 -964 98 -593 137 -786 215 -1054 53 -185 96 -295 159 -412
         234 -429 677 -712 1257 -804 156 -25 348 -41 490 -41 l109 0 0 39 0 38 -67 6
         c-298 28 -557 228 -803 620 -134 214 -245 449 -537 1132 -305 715 -420 923
         -670 1208 -203 231 -420 380 -678 466 -125 42 -143 51 -103 51 41 0 214 37
         325 70 591 175 971 575 1058 1115 20 119 19 376 0 491 -41 242 -142 433 -325
         614 -116 115 -236 198 -412 285 -371 184 -822 278 -1458 305 -124 5 -588 10
         -1032 10 l-808 0 0 -3225z m2016 3112 c438 -70 708 -183 930 -390 146 -136
         277 -345 324 -517 65 -237 71 -589 14 -870 -20 -99 -85 -292 -124 -371 -165
         -329 -437 -534 -782 -589 -125 -20 -352 -8 -463 24 -327 96 -640 366 -838 724
         -149 269 -268 629 -312 944 -26 192 -35 371 -35 721 l0 349 593 -5 c478 -3
         611 -7 693 -20z"/>
         <path d="M36337 35823 c-117 -186 -396 -689 -614 -1108 -697 -1337 -1284
         -2680 -1538 -3515 -95 -312 -177 -684 -211 -950 -19 -158 -15 -370 10 -465 39
         -144 127 -269 235 -331 25 -15 60 -38 78 -52 77 -58 257 -53 387 12 179 88
         287 244 447 637 73 180 248 563 321 699 238 449 695 827 1200 995 202 67 582
         142 672 133 l30 -3 510 -1227 511 -1227 388 -1 c213 0 387 3 387 6 0 6 -2680
         6339 -2713 6412 -8 16 -19 22 -43 22 -28 0 -38 -6 -57 -37z m318 -2321 c362
         -843 655 -1535 652 -1538 -3 -3 -58 -12 -123 -20 -287 -36 -594 -118 -796
         -212 -217 -101 -431 -246 -596 -406 -134 -130 -214 -226 -324 -391 -110 -165
         -330 -616 -423 -870 -50 -135 -132 -304 -192 -395 -88 -134 -174 -191 -319
         -212 -77 -10 -81 -10 -172 22 -120 42 -172 78 -220 150 -98 147 -128 456 -73
         765 150 839 528 1841 1286 3405 221 458 628 1252 635 1242 4 -4 303 -697 665
         -1540z"/>
         <path d="M46470 32640 l0 -3220 1817 2 1817 3 103 655 c56 360 101 664 100
         675 -1 10 -24 -37 -51 -105 -101 -255 -234 -494 -367 -656 -202 -248 -468
         -398 -823 -466 -107 -21 -144 -21 -998 -25 l-888 -4 1 2078 0 2078 38 -105
         c89 -247 188 -385 404 -567 177 -147 379 -268 735 -440 108 -52 230 -110 270
         -130 110 -53 237 -142 339 -237 50 -47 94 -86 97 -86 3 0 6 162 6 360 l0 360
         -22 4 c-13 3 -120 7 -238 10 -681 16 -1090 149 -1332 434 -142 166 -227 375
         -275 672 -14 91 -17 223 -20 979 l-4 873 713 -5 c402 -3 763 -10 828 -16 594
         -57 895 -183 1327 -553 56 -49 105 -88 108 -88 3 0 5 167 5 370 l0 370 -1845
         0 -1845 0 0 -3220z"/>
         <path d="M51090 32641 l0 -3221 345 0 345 0 0 3182 0 3181 118 -6 c618 -31
         1225 -416 1708 -1082 509 -702 870 -1568 1138 -2735 181 -792 296 -1708 296
         -2372 l0 -168 350 0 350 0 0 3220 0 3220 -350 0 -350 0 -1 -2542 c-1 -2186 -3
         -2530 -15 -2448 -56 393 -110 702 -179 1015 -215 982 -441 1595 -876 2372
         -525 938 -1148 1457 -1895 1579 -77 13 -199 18 -541 21 l-443 5 0 -3221z"/>
         <path d="M56790 32640 l0 -3220 350 0 350 0 0 63 c1 268 33 774 66 1037 73
         586 249 1240 463 1720 117 263 289 449 526 572 160 82 210 93 435 93 211 0
         291 -12 420 -62 208 -82 389 -274 496 -527 69 -162 109 -321 164 -647 139
         -831 219 -1130 377 -1411 303 -539 923 -837 1741 -838 l112 0 0 39 0 38 -74 7
         c-201 18 -375 105 -540 271 -231 231 -393 531 -857 1588 -207 469 -243 544
         -346 715 -179 299 -338 480 -558 637 -240 171 -473 251 -813 276 -163 12 -307
         3 -425 -27 -84 -21 -227 -91 -316 -156 -40 -29 -83 -60 -95 -68 -25 -18 9 45
         162 300 236 395 443 674 941 1270 515 617 629 736 935 974 385 300 775 518
         987 552 22 4 39 10 39 15 0 5 -335 9 -762 9 l-762 0 46 -47 c73 -75 93 -128
         92 -248 -1 -133 -32 -233 -134 -440 -124 -252 -254 -441 -561 -810 -737 -889
         -1138 -1532 -1414 -2270 -143 -381 -231 -717 -310 -1175 l-34 -195 0 2593 -1
         2592 -350 0 -350 0 0 -3220z"/>
         <path d="M32430 26990 c0 -132 2 -240 5 -240 3 0 40 30 81 66 256 223 566 329
         1019 349 72 3 178 8 238 11 l107 5 0 -2125 0 -2126 240 0 240 0 0 2125 0 2126
         98 -5 c53 -3 159 -8 235 -11 426 -18 737 -119 983 -318 42 -34 88 -70 101 -80
         l23 -19 0 241 0 241 -1685 0 -1685 0 0 -240z"/>
         <path d="M37888 27028 c-163 -284 -281 -507 -486 -918 -469 -939 -779 -1697
         -907 -2215 -130 -527 -112 -808 58 -920 127 -85 115 -80 196 -79 178 1 299
         115 412 388 65 156 157 361 211 471 77 154 152 260 268 376 245 246 566 393
         956 437 l71 8 343 -823 343 -823 258 0 c143 0 259 3 259 8 0 4 -408 971 -907
         2150 -872 2058 -909 2142 -933 2142 -23 0 -39 -22 -142 -202z m317 -1377 c239
         -558 434 -1016 431 -1018 -2 -2 -48 -10 -103 -18 -357 -50 -613 -158 -855
         -360 -77 -64 -200 -207 -271 -315 -54 -82 -171 -318 -236 -475 -23 -55 -56
         -134 -73 -175 -36 -87 -97 -195 -134 -239 -71 -85 -184 -111 -301 -70 -126 44
         -175 124 -195 318 -9 89 -8 125 6 220 69 478 287 1096 700 1991 130 281 579
         1171 587 1163 4 -4 204 -464 444 -1022z"/>
         <path d="M40400 26990 c0 -132 3 -240 6 -240 3 0 31 23 62 51 251 229 577 344
         1037 364 72 3 178 8 238 11 l107 5 0 -2125 0 -2126 240 0 240 0 0 2125 0 2126
         98 -5 c53 -3 158 -8 232 -11 446 -19 754 -122 1015 -340 33 -27 68 -56 78 -64
         16 -13 17 0 17 228 l0 241 -1685 0 -1685 0 0 -240z"/>
         <path d="M44340 27225 c0 -3 333 -564 740 -1248 l740 -1243 0 -902 0 -902 245
         0 245 0 0 967 0 967 481 931 c664 1281 588 1145 689 1245 91 90 169 142 254
         172 51 17 49 17 -299 17 -297 0 -344 -2 -310 -13 168 -53 227 -182 154 -336
         -17 -36 -249 -489 -516 -1008 -391 -759 -489 -940 -499 -930 -13 14 -526 869
         -1049 1751 l-319 537 -278 0 c-153 0 -278 -2 -278 -5z"/>
         <path d="M49975 27078 c-284 -488 -694 -1305 -962 -1918 -108 -247 -245 -589
         -317 -792 -160 -451 -252 -904 -226 -1113 19 -155 63 -231 176 -305 85 -55
         138 -67 223 -50 150 29 256 150 363 412 69 171 202 460 250 540 229 394 637
         648 1143 711 l100 13 302 -726 c167 -399 322 -769 344 -822 l41 -98 260 0
         c244 0 260 1 254 18 -4 9 -413 977 -909 2149 -865 2046 -903 2133 -928 2133
         -22 0 -36 -18 -114 -152z m289 -1427 c239 -558 434 -1016 432 -1018 -2 -2 -61
         -12 -132 -22 -498 -73 -848 -288 -1099 -674 -67 -103 -202 -380 -270 -552
         -125 -319 -217 -425 -370 -425 -53 0 -148 33 -192 66 -97 74 -135 289 -94 539
         82 497 332 1182 761 2085 178 375 512 1032 520 1023 5 -4 204 -464 444 -1022z"/>
         <path d="M52460 25081 l0 -2151 230 0 230 0 0 2125 0 2125 63 -6 c369 -32 646
         -171 937 -470 358 -368 649 -919 854 -1617 188 -637 316 -1437 316 -1979 0
         -73 3 -143 6 -155 l6 -23 229 0 229 0 0 2150 0 2150 -230 0 -230 0 -1 -1702
         c-1 -1060 -5 -1680 -10 -1643 -5 33 -19 121 -30 195 -83 549 -244 1153 -409
         1540 -71 167 -232 484 -321 633 -325 540 -699 850 -1144 949 -76 17 -139 21
         -407 25 l-318 5 0 -2151z"/>
         <path d="M57676 27080 c-431 -741 -957 -1847 -1244 -2615 -186 -497 -288 -973
         -261 -1212 17 -153 66 -234 186 -309 76 -47 80 -49 154 -48 96 1 168 33 243
         109 69 70 106 135 191 338 88 209 194 437 241 518 230 392 655 649 1169 707
         l71 8 304 -731 c167 -401 322 -772 343 -822 l39 -93 260 0 c243 0 260 1 254
         18 -4 9 -412 977 -909 2149 -866 2047 -903 2133 -928 2133 -22 0 -36 -18 -113
         -150z m288 -1429 c240 -558 434 -1016 432 -1018 -2 -2 -50 -11 -107 -18 -322
         -45 -557 -137 -783 -306 -173 -130 -314 -304 -430 -529 -63 -124 -151 -319
         -196 -435 -46 -119 -124 -260 -170 -306 -78 -78 -173 -97 -289 -58 -115 39
         -166 117 -192 289 -15 107 -8 207 31 401 88 449 292 1011 651 1789 153 332
         600 1223 609 1213 5 -4 204 -464 444 -1022z"/>
         <path d="M49712 19919 c-168 -16 -279 -47 -417 -117 -127 -65 -236 -173 -293
         -292 -49 -104 -62 -163 -62 -285 0 -163 38 -277 126 -374 126 -140 272 -205
         698 -312 331 -82 415 -117 491 -201 49 -55 60 -90 53 -173 -15 -175 -240 -280
         -563 -261 -224 12 -465 91 -633 205 -34 22 -65 41 -70 41 -9 0 -153 -316 -152
         -335 0 -14 112 -88 195 -128 274 -135 674 -187 995 -131 291 51 501 187 603
         389 46 92 61 161 61 285 0 179 -40 284 -150 394 -123 124 -293 197 -649 281
         -440 103 -568 182 -569 350 -1 318 549 407 1042 169 52 -25 96 -44 97 -42 7 6
         135 326 135 336 0 4 -35 27 -77 49 -235 124 -559 181 -861 152z"/>
         <path d="M58815 19920 c-499 -54 -892 -354 -1038 -793 -44 -131 -60 -238 -60
         -397 0 -159 16 -266 60 -397 135 -404 488 -699 937 -780 123 -22 380 -22 502
         0 603 109 1004 577 1004 1174 0 461 -236 854 -636 1058 -106 54 -241 99 -359
         120 -110 19 -307 26 -410 15z m365 -405 c88 -23 232 -94 302 -149 80 -63 160
         -165 207 -260 142 -287 103 -660 -95 -899 -73 -89 -150 -149 -259 -202 -135
         -65 -203 -80 -375 -79 -128 1 -156 4 -235 28 -222 67 -396 215 -489 416 -59
         129 -71 186 -71 360 0 174 12 231 71 360 107 231 332 399 592 440 80 13 275 4
         352 -15z"/>
         <path d="M28790 18730 l0 -1160 661 0 c728 0 787 4 964 60 229 74 385 230 426
         428 18 91 7 294 -21 367 -58 150 -186 281 -328 335 l-43 16 57 39 c101 70 184
         196 215 325 7 30 12 98 12 150 0 165 -45 275 -157 385 -112 111 -261 175 -471
         204 -47 7 -311 11 -696 11 l-619 0 0 -1160z m1225 800 c179 -43 275 -148 275
         -300 0 -153 -94 -252 -277 -294 -59 -13 -136 -16 -427 -16 l-356 0 0 316 0
         316 368 -5 c236 -3 385 -9 417 -17z m73 -970 c198 -33 308 -132 320 -290 6
         -87 -16 -162 -63 -218 -48 -55 -104 -87 -201 -114 -73 -20 -108 -21 -496 -26
         l-418 -4 0 331 0 331 398 0 c222 0 425 -5 460 -10z"/>
         <path d="M31950 18730 l0 -1160 875 0 875 0 0 185 0 185 -650 0 -650 0 0 315
         0 315 555 0 555 0 0 180 0 180 -555 0 -555 0 0 295 0 295 630 0 630 0 0 185 0
         185 -855 0 -855 0 0 -1160z"/>
         <path d="M35786 19858 c-7 -18 -240 -535 -516 -1148 -276 -613 -504 -1121
         -507 -1127 -4 -10 45 -13 223 -13 l229 0 112 263 111 262 578 0 578 0 112
         -260 113 -260 232 -3 c218 -2 231 -1 225 15 -4 10 -239 532 -523 1161 l-516
         1142 -218 0 -219 0 -14 -32z m449 -922 c113 -263 204 -480 202 -482 -2 -2
         -193 -3 -424 -2 l-420 3 211 492 c120 281 214 487 218 480 3 -7 99 -228 213
         -491z"/>
         <path d="M38350 19168 c0 -769 3 -818 50 -988 59 -209 203 -399 380 -504 216
         -127 509 -171 825 -124 342 51 608 267 715 581 63 186 63 189 67 1010 l4 747
         -220 0 -220 0 -3 -747 c-3 -689 -5 -753 -22 -813 -57 -204 -174 -330 -356
         -385 -30 -9 -100 -19 -155 -22 -312 -18 -518 122 -597 404 -22 77 -22 92 -26
         821 l-3 742 -219 0 -220 0 0 -722z"/>
         <path d="M41480 19705 l0 -185 385 0 385 0 0 -975 0 -975 220 0 220 0 0 975 0
         975 385 0 385 0 0 185 0 185 -990 0 -990 0 0 -185z"/>
         <path d="M44353 19878 c3 -7 208 -348 456 -758 l451 -745 0 -402 0 -403 220 0
         220 0 0 409 0 409 446 737 c245 405 448 743 451 751 5 12 -25 14 -213 12
         l-217 -3 -336 -552 c-184 -304 -338 -553 -341 -553 -3 0 -155 250 -338 555
         l-334 555 -235 0 c-184 0 -234 -3 -230 -12z"/>
         <path d="M52285 18763 c-279 -621 -514 -1143 -521 -1160 l-14 -33 227 0 228 0
         114 265 113 265 577 0 576 -1 114 -264 114 -265 229 0 c220 0 229 1 223 19 -3
         10 -237 531 -520 1157 l-514 1139 -219 3 -219 2 -508 -1127z m938 181 c114
         -265 207 -484 207 -488 0 -3 -191 -6 -424 -6 l-424 0 212 494 c116 272 214
         491 217 488 3 -4 99 -224 212 -488z"/>
         <path d="M55400 18730 l0 -1160 825 0 825 0 0 185 0 185 -605 0 -605 0 0 975
         0 975 -220 0 -220 0 0 -1160z"/>
         <path d="M61350 18730 l0 -1160 220 0 220 0 2 775 3 775 630 -775 630 -774
         183 -1 182 0 0 1160 0 1160 -255 0 -256 0 7 -112 c19 -332 69 -1436 64 -1433
         -3 2 -286 350 -630 774 l-625 770 -187 0 -188 1 0 -1160z"/>
         </g>
</svg>